<svg width="24" height="24" viewBox="0 0 24 24" fill="none" xmlns="http://www.w3.org/2000/svg">
<path fill-rule="evenodd" clip-rule="evenodd" d="M6 22.8784C4.34315 22.8784 3 21.5353 3 19.8784V9.87842C3 9.84452 3.00169 9.81102 3.00498 9.77799H3C3 9.20202 3.2288 8.64965 3.63607 8.24238L9.87868 1.99977C11.0502 0.828201 12.9497 0.8282 14.1213 1.99977L20.3639 8.24239C20.7712 8.64966 21 9.20203 21 9.77799H20.995C20.9983 9.81102 21 9.84452 21 9.87842V19.8784C21 21.5353 19.6569 22.8784 18 22.8784H6ZM12.7071 3.41399L19 9.70688V19.8784C19 20.4307 18.5523 20.8784 18 20.8784H15V15.8784C15 14.2216 13.6569 12.8784 12 12.8784C10.3431 12.8784 9 14.2216 9 15.8784V20.8784H6C5.44772 20.8784 5 20.4307 5 19.8784V9.70696L11.2929 3.41399C11.6834 3.02346 12.3166 3.02346 12.7071 3.41399Z" fill="black"/>
</svg>
