<svg width="20" height="20" viewBox="0 0 20 20" fill="none" xmlns="http://www.w3.org/2000/svg">
<g clip-path="url(#clip0)">
<path d="M18.1819 18.1816H1.81828C1.3162 18.1816 0.90918 18.5887 0.90918 19.0907C0.90918 19.5928 1.3162 19.9998 1.81828 19.9998H18.1819C18.684 19.9998 19.091 19.5928 19.091 19.0907C19.091 18.5887 18.684 18.1816 18.1819 18.1816Z" fill="black"/>
<path d="M13.5415 0.707107C13.151 0.316583 12.5178 0.316582 12.1273 0.707107L1.9091 10.9253C1.72157 11.1128 1.61621 11.3672 1.61621 11.6324V15.3637C1.61621 15.9159 2.06393 16.3636 2.61621 16.3636H6.34747C6.61269 16.3636 6.86704 16.2583 7.05458 16.0708L17.2728 5.85258C17.6633 5.46206 17.6633 4.82889 17.2728 4.43837L13.5415 0.707107ZM6.30002 14.2526C6.11248 14.4401 5.85813 14.5455 5.59291 14.5455H4.43441C3.88212 14.5455 3.43441 14.0977 3.43441 13.5455V12.3869C3.43441 12.1217 3.53976 11.8674 3.7273 11.6798L12.1273 3.27982C12.5178 2.8893 13.151 2.8893 13.5415 3.27982L14.7 4.43832C15.0905 4.82885 15.0905 5.46201 14.7 5.85254L6.30002 14.2526Z" fill="black"/>
</g>
<defs>
<clipPath id="clip0">
<rect width="20" height="20" fill="white"/>
</clipPath>
</defs>
</svg>
