<?xml version="1.0" standalone="no"?>
<!DOCTYPE svg PUBLIC "-//W3C//DTD SVG 1.1//EN" "http://www.w3.org/Graphics/SVG/1.1/DTD/svg11.dtd" >
<svg xmlns="http://www.w3.org/2000/svg" xmlns:xlink="http://www.w3.org/1999/xlink" version="1.1">
<metadata>
Created by FontForge 20170731 at Mon May 31 08:27:03 2021
 By Aleksey,,,
Binnenland, 2006, Designed by Mika Mischler / 2002-2006
All rights reserved. This software may not be reproduced, used, displayed, modified, disclosed or transferred without the express written approval of (Binnenland).
</metadata>
<defs>
<font id="TSTARPRO-Regular" horiz-adv-x="1055" >
  <font-face 
    font-family="TSTAR PRO"
    font-weight="400"
    font-stretch="normal"
    units-per-em="2048"
    panose-1="2 0 8 6 3 0 0 2 0 4"
    ascent="1638"
    descent="-410"
    x-height="1079"
    cap-height="1460"
    bbox="-69 -463 2073 1948"
    underline-thickness="104"
    underline-position="-493"
    unicode-range="U+0020-FB02"
  />
<missing-glyph horiz-adv-x="748" 
d="M68 0v1365h544v-1365h-544zM136 68h408v1229h-408v-1229z" />
    <glyph glyph-name=".notdef" horiz-adv-x="748" 
d="M68 0v1365h544v-1365h-544zM136 68h408v1229h-408v-1229z" />
    <glyph glyph-name=".null" horiz-adv-x="0" 
 />
    <glyph glyph-name="nonmarkingreturn" horiz-adv-x="682" 
 />
    <glyph glyph-name="space" unicode=" " horiz-adv-x="451" 
 />
    <glyph glyph-name="exclam" unicode="!" horiz-adv-x="508" 
d="M199 424v1032h112v-1032h-112zM168 0v170h170v-170h-170z" />
    <glyph glyph-name="quotedbl" unicode="&#x22;" horiz-adv-x="702" 
d="M422 1137v381h113v-381h-113zM168 1137v381h113v-381h-113z" />
    <glyph glyph-name="numbersign" unicode="#" horiz-adv-x="1376" 
d="M483 582h332l53 331h-329zM168 489v93h215l53 331h-200v93h215l65 407h102l-65 -407h332l67 407h101l-70 -407h223v-93h-235l-56 -331h224v-93h-238l-70 -446h-98l68 446h-332l-72 -446h-100l72 446h-201z" />
    <glyph glyph-name="dollar" unicode="$" horiz-adv-x="1063" 
d="M109 360h112q0 -64 22.5 -113.5t62.5 -84t94.5 -52.5t119.5 -18q73 0 132 20t101 56.5t64.5 86.5t22.5 110q0 48 -11 86t-32 68.5t-50.5 55.5t-66.5 46q-48 27 -92.5 50.5t-88 46.5t-87 45.5t-88.5 47.5q-42 22 -77 54t-60.5 71.5t-39.5 86t-14 97.5q0 70 24 130.5
t67.5 107t104 76.5t134.5 39v137h108v-135q80 -8 146 -38.5t113.5 -79.5t73.5 -114t26 -141h-113q0 65 -22 114.5t-61.5 82.5t-93 50t-116.5 17q-58 0 -109 -16.5t-88.5 -48t-59 -79t-21.5 -108.5q0 -69 37.5 -124.5t109.5 -92.5q79 -40 160.5 -81.5t177.5 -94.5
q106 -59 163.5 -150.5t57.5 -210.5q0 -77 -29.5 -142.5t-80.5 -115t-120.5 -80.5t-150.5 -38v-129h-108v129q-82 8 -147.5 40.5t-111.5 82.5t-70.5 114.5t-24.5 138.5z" />
    <glyph glyph-name="percent" unicode="%" horiz-adv-x="1649" 
d="M1065 254q0 -26 6 -53t23 -49t47 -36t78 -14q75 0 115 40t40 112v219q0 27 -6 54t-23 49t-47.5 35.5t-78.5 13.5q-75 0 -114.5 -40t-39.5 -112v-219zM961 254v219q0 58 18.5 105t52 80t81 51t106.5 18q60 0 108 -17.5t81.5 -50.5t52 -80t18.5 -106v-219q0 -58 -18.5 -105
t-52.5 -80t-82 -51t-107 -18t-107 17.5t-81.5 50.5t-51.5 80t-18 106zM494 -115l555 1690h100l-551 -1690h-104zM272 987q0 -27 6 -54t23 -48.5t47 -35t78 -13.5q75 0 115.5 39.5t40.5 111.5v219q0 26 -6 53t-23.5 49t-48 36t-78.5 14q-74 0 -114 -39.5t-40 -112.5v-219z
M168 987v219q0 58 18.5 105t52 80t81 51t106.5 18q60 0 108 -18t82 -51t52 -80t18 -105v-219q0 -57 -18.5 -104t-52.5 -80.5t-82 -51.5t-107 -18t-107 17.5t-81.5 50.5t-51.5 80t-18 106z" />
    <glyph glyph-name="ampersand" unicode="&#x26;" horiz-adv-x="1315" 
d="M260 387q0 -88 29 -145t74.5 -90.5t100.5 -46.5t107 -13t107.5 13t101 46.5t74.5 90.5t29 145v14l-371 316q-20 -11 -42 -22.5t-50 -28.5q-79 -47 -119.5 -119t-40.5 -160zM147 389q0 119 57 212t163 155l61 35l-80 69q-72 61 -102.5 125.5t-30.5 147.5q0 94 36.5 159.5
t92 106t121.5 58.5t125 18q83 0 155.5 -25.5t126.5 -72.5t85.5 -113.5t31.5 -147.5h-112q0 58 -21.5 104t-60 78t-91 49t-114.5 17q-47 0 -93.5 -9.5t-84 -35.5t-61 -72t-23.5 -119q0 -42 8 -71.5t22.5 -52.5t35.5 -43t48 -43l705 -594l-68 -88l-90 75q-13 -91 -55 -154
t-100.5 -102t-127.5 -56t-135 -17q-73 0 -148 21t-136.5 69t-100.5 125.5t-39 191.5z" />
    <glyph glyph-name="quotesingle" unicode="'" horiz-adv-x="451" 
d="M168 1137v381h113v-381h-113z" />
    <glyph glyph-name="parenleft" unicode="(" horiz-adv-x="575" 
d="M168 160v1126q0 48 7 95t32 92q26 47 56.5 80t70.5 71l72 -80q-28 -28 -54 -54.5t-43 -62.5q-15 -29 -21.5 -68t-6.5 -85v-1102q0 -46 6.5 -85.5t21.5 -68.5q17 -35 43 -61.5t54 -54.5l-72 -80q-40 38 -70.5 71t-56.5 80q-25 45 -32 92t-7 95z" />
    <glyph glyph-name="parenright" unicode=")" horiz-adv-x="575" 
d="M168 -98q28 28 53 54.5t43 61.5q29 60 29 154v1102q0 46 -7.5 85t-21.5 68q-18 36 -43 62.5t-53 54.5l72 80q40 -38 70.5 -71t56.5 -80q24 -45 31.5 -92t7.5 -95v-1126q0 -48 -7.5 -95t-31.5 -92q-26 -47 -56.5 -80t-70.5 -71z" />
    <glyph glyph-name="asterisk" unicode="*" horiz-adv-x="1157" 
d="M274 979l226 123l-226 123l45 75l220 -131l-7 258h91l-9 -258l224 131l43 -75l-226 -123l226 -123l-43 -78l-224 133l9 -258h-91l7 258l-220 -133z" />
    <glyph glyph-name="plus" unicode="+" horiz-adv-x="1157" 
d="M156 530v103h368v356h105v-356h368v-103h-368v-383h-105v383h-368z" />
    <glyph glyph-name="comma" unicode="," horiz-adv-x="571" 
d="M57 -223l162 401h148l-193 -401h-117z" />
    <glyph glyph-name="hyphen" unicode="-" horiz-adv-x="926" 
d="M168 530v103h588v-103h-588z" />
    <glyph glyph-name="period" unicode="." horiz-adv-x="508" 
d="M160 0v186h186v-186h-186z" />
    <glyph glyph-name="slash" unicode="/" horiz-adv-x="1008" 
d="M168 -111l555 1690h111l-551 -1690h-115z" />
    <glyph glyph-name="zero" unicode="0" 
d="M260 362q0 -71 20.5 -122t56.5 -84t84.5 -48.5t104.5 -15.5t105 15.5t85 48.5t56.5 84t20.5 122v732q0 71 -20.5 122t-56.5 84t-85 48.5t-105 15.5t-104.5 -15.5t-84.5 -48.5t-56.5 -84t-20.5 -122v-732zM147 358v740q0 78 24.5 146.5t72.5 119.5t118.5 81t163.5 30
t164 -30t118.5 -81t72 -119.5t24.5 -146.5v-740q0 -77 -24.5 -145.5t-72 -119.5t-118.5 -81t-164 -30t-163.5 30t-118.5 81t-72.5 119.5t-24.5 145.5z" />
    <glyph glyph-name="one" unicode="1" horiz-adv-x="1063" 
d="M166 0v111h307v1232l-223 -16v107l336 26v-1349h315v-111h-735z" />
    <glyph glyph-name="two" unicode="2" 
d="M121 1100q0 81 30.5 150t85.5 119t130 78t165 28q89 0 163 -28.5t126.5 -80t81.5 -124.5t29 -161q0 -97 -36.5 -172.5t-102.5 -134.5q-45 -39 -100.5 -74.5t-113.5 -70t-113.5 -69.5t-98.5 -73q-30 -24 -54 -49t-41.5 -54t-26.5 -64t-9 -78v-131h694v-111h-807v254
q0 54 14.5 100.5t39.5 87t59 75t73 65.5q46 36 99 69t107 65.5t105.5 64.5t94.5 67q60 48 83 105.5t23 125.5q0 137 -74.5 211t-214.5 74q-63 0 -117.5 -17.5t-95 -51t-63.5 -82.5t-23 -113h-112z" />
    <glyph glyph-name="three" unicode="3" 
d="M125 362h113q0 -85 30.5 -138t75 -82t93.5 -39.5t87 -10.5q26 0 57.5 4.5t63.5 15.5t62 30.5t53.5 50.5t38 74.5t14.5 101.5v108q0 58 -15 100.5t-39.5 72t-55.5 47.5t-63.5 27.5t-63.5 13t-54 3.5h-63v105l323 504h-594v110h707v-127l-317 -491q107 -9 175 -48
t106.5 -92t52.5 -112t14 -109v-112q0 -32 -8 -73.5t-26 -84.5t-48 -84t-74.5 -73.5t-105 -52t-138.5 -19.5q-80 0 -140.5 18t-105 47.5t-74.5 68.5t-48 81t-25.5 85t-7.5 80z" />
    <glyph glyph-name="four" unicode="4" 
d="M139 424v139l332 897h111l-338 -925h557v561h112v-1096h-112v424h-662z" />
    <glyph glyph-name="five" unicode="5" 
d="M113 365h112q0 -63 21 -113.5t60 -86t94.5 -54.5t123.5 -19q58 0 112 18t96 54t67.5 89t25.5 122v98q0 56 -18.5 108.5t-55.5 92.5t-92.5 64t-130.5 24h-352v135l41 561h643v-110h-541l-32 -476h245q80 0 153.5 -28t129.5 -79.5t89.5 -124.5t33.5 -163v-100
q0 -86 -33 -158.5t-90 -125t-132 -82t-159 -29.5t-158.5 27t-130.5 77t-89 120.5t-33 158.5z" />
    <glyph glyph-name="six" unicode="6" 
d="M238 362q0 -86 31 -139t75.5 -82t93.5 -39t84 -10q23 0 54 4t63.5 14.5t63.5 29t55.5 48.5t39.5 73t15 101v166q0 58 -15 101t-39.5 73.5t-55.5 49.5t-63.5 30t-63.5 15t-54 4q-24 0 -54 -4t-61.5 -15t-62 -30t-54 -49.5t-38 -73.5t-14.5 -101v-166zM125 352v744
q0 31 8 71.5t26.5 82.5t48.5 82.5t75 72t106 51t141 19.5q77 0 134.5 -19t99.5 -49.5t69.5 -70.5t43.5 -81.5t22.5 -82t7.5 -72.5h-112q-1 84 -27.5 136t-66.5 80.5t-86 38t-85 9.5q-26 0 -57.5 -4t-64 -15t-63.5 -30t-54.5 -49t-38 -73t-14.5 -101v-308q49 62 123.5 94.5
t168.5 32.5q78 0 138 -18.5t104 -49.5t73.5 -71t47.5 -82t25.5 -84t7.5 -76v-174q0 -30 -7.5 -69.5t-26 -81t-48.5 -81.5t-75 -71.5t-106 -51t-141 -19.5q-78 0 -138 19t-104 49.5t-74 70t-48 81t-25.5 80.5t-7.5 70z" />
    <glyph glyph-name="seven" unicode="7" 
d="M104 1350v110h844v-127l-495 -1333h-121l506 1350h-734z" />
    <glyph glyph-name="eight" unicode="8" 
d="M240 1085q0 -67 21.5 -119t59.5 -88t91 -54.5t116 -18.5q64 0 117 19t91 55t59.5 88t21.5 118q0 88 -32 143t-77.5 85t-95 40.5t-84.5 10.5t-84 -10.5t-94.5 -40.5t-77.5 -85t-32 -143zM221 395q0 -65 16 -112.5t42 -81t59 -55t67 -33.5t66.5 -16.5t56.5 -4.5t55.5 4.5
t65 16.5t66.5 33t58.5 55t41.5 81.5t16 112.5q0 72 -23.5 128t-65 94t-96.5 57.5t-118 19.5q-65 0 -121 -20t-97 -58t-65 -93.5t-24 -127.5zM109 395q0 40 6.5 87t27.5 94.5t60 92t104 79.5q-51 31 -85.5 74.5t-55.5 90t-30 92t-9 80.5q0 37 7.5 80.5t25.5 87t48 83.5
t74.5 71t105 49.5t140.5 18.5q78 0 138.5 -18.5t105 -49.5t75 -71t49 -83.5t26.5 -87t8 -80.5q0 -35 -10 -80t-32.5 -90.5t-59 -89t-89.5 -75.5q62 -36 102 -81t63 -93t31.5 -95t8.5 -86q0 -38 -7.5 -83t-26 -91t-49 -89t-77 -76.5t-110 -53.5t-146.5 -20q-82 0 -144.5 20
t-109.5 53.5t-78.5 76.5t-50.5 89t-27.5 91t-8.5 83z" />
    <glyph glyph-name="nine" unicode="9" 
d="M238 928q0 -59 15 -101.5t39.5 -73t55.5 -49.5t63 -30t63 -15t54 -4q24 0 54 4t62 15t62 30t54 49.5t38.5 73.5t14.5 101v166q0 58 -14.5 101t-38.5 73t-54 48.5t-62 29t-62 14.5t-54 4t-54.5 -4t-62.5 -14.5t-63 -29t-55.5 -48.5t-39.5 -73t-15 -101v-166zM125 926v174
q0 30 7.5 69.5t26 81.5t48.5 82t75 71.5t105.5 51t140.5 19.5q78 0 138.5 -19t104.5 -50t74 -70.5t48 -80.5t25.5 -80.5t7.5 -70.5v-744q0 -31 -7.5 -71t-25 -82t-47.5 -82.5t-74.5 -72t-105 -51t-140.5 -19.5q-77 0 -135 18.5t-100.5 49.5t-70.5 70.5t-45 81t-24.5 82
t-7.5 72.5h113q1 -84 29 -136t69.5 -80.5t88.5 -38t85 -9.5q39 0 88 9.5t93 39t74 83t30 141.5v307q-49 -62 -124 -94.5t-169 -32.5q-78 0 -138 19.5t-103.5 51.5t-73 72.5t-47.5 83t-25.5 83t-7.5 71.5z" />
    <glyph glyph-name="colon" unicode=":" horiz-adv-x="508" 
d="M160 680v186h186v-186h-186zM160 0v186h186v-186h-186z" />
    <glyph glyph-name="semicolon" unicode=";" horiz-adv-x="504" 
d="M160 680v186h186v-186h-186zM25 -223l161 401h148l-193 -401h-116z" />
    <glyph glyph-name="less" unicode="&#x3c;" horiz-adv-x="1030" 
d="M168 543l534 536h154l-530 -532l536 -547h-153z" />
    <glyph glyph-name="equal" unicode="=" horiz-adv-x="1217" 
d="M242 702v103h731v-103h-731zM242 399v103h731v-103h-731z" />
    <glyph glyph-name="greater" unicode="&#x3e;" horiz-adv-x="1034" 
d="M168 0l537 543l-531 536h154l536 -536l-542 -543h-154z" />
    <glyph glyph-name="question" unicode="?" horiz-adv-x="915" 
d="M332 0v170h168v-170h-168zM55 1106q0 32 8 72t27 81t49.5 80t75.5 69t105.5 48.5t138.5 18.5q89 0 162.5 -28.5t126 -80.5t81.5 -124.5t29 -160.5q0 -74 -25.5 -129t-62.5 -98q-26 -30 -57.5 -56.5t-64.5 -51t-65 -49.5t-57 -52q-29 -31 -44 -73t-15 -111v-51h-113v45
q0 46 7.5 84.5t20 70t28.5 56.5t34 45q28 31 59.5 56t63 48t61.5 46.5t56 51.5q28 31 44.5 69t16.5 97q0 141 -73.5 213t-212.5 72q-24 0 -53.5 -3.5t-61.5 -13t-62.5 -27.5t-54.5 -46.5t-40.5 -69.5t-18.5 -98h-113z" />
    <glyph glyph-name="at" unicode="@" horiz-adv-x="2224" 
d="M776.5 269.5q0.5 -24.5 21 -62.5t66.5 -62t129 -24q125 0 206 68t106 192l65 338q8 38 8 77q0 6 -1 32t-22.5 63t-68 60.5t-127.5 23.5q-61 0 -112.5 -17t-92 -50t-67.5 -80.5t-39 -108.5l-64 -338q-8 -41 -8 -85q0 -2 0.5 -26.5zM152 524q0 134 36 259.5t100.5 235
t155 200.5t199.5 155.5t233 100.5t257 36q128 0 247.5 -30t224 -85.5t190.5 -135t148 -179t96 -217t34 -248.5q0 -89 -18.5 -169t-51 -148.5t-77 -124t-97.5 -94t-112 -59.5t-120 -21q-36 0 -77.5 9t-80.5 29.5t-70.5 52.5t-47.5 77q-37 -42 -78.5 -71t-85.5 -46.5
t-90.5 -25t-93.5 -7.5q-82 0 -145 25t-102.5 72t-50 96.5t-10.5 84.5q0 40 9 85l63 338q16 82 55 148.5t96.5 113.5t132 72.5t161.5 25.5q37 0 74 -8t68.5 -23t56 -37t36.5 -50l21 102h110l-137 -703q-7 -33 -7 -62q0 -22 6.5 -56t32 -68t65.5 -53t91 -19q76 0 142.5 40
t116 109t78 163t28.5 202q0 115 -29.5 218t-84 191t-130.5 158.5t-168 120.5t-198.5 76.5t-220.5 26.5q-118 0 -228.5 -32t-207.5 -89.5t-177.5 -138.5t-138 -179t-89.5 -210.5t-32 -233.5t28.5 -230t81 -202.5t127 -169t167 -128.5t201 -82t227.5 -29q74 0 148.5 11
t145.5 34l37 -95q-78 -26 -162 -40.5t-169 -14.5q-134 0 -256 32.5t-226.5 92.5t-189 145t-144 190t-92 228t-32.5 258z" />
    <glyph glyph-name="A" unicode="A" horiz-adv-x="1106" 
d="M311 537h482l-224 823h-32zM55 0l402 1460h190l404 -1460h-111l-117 426h-542l-115 -426h-111z" />
    <glyph glyph-name="B" unicode="B" horiz-adv-x="1122" 
d="M281 809h317q41 0 85 8.5t80 36t59.5 80t23.5 139.5v19q0 87 -27 138.5t-67 78t-85 34t-81 7.5h-305v-541zM281 111h315q24 0 53.5 4t60 14.5t59.5 29t51.5 48.5t36 73t13.5 101v43q0 87 -25.5 141t-64.5 83.5t-85.5 39.5t-88.5 10h-325v-587zM168 0v1460h422
q80 0 138 -19t99 -49.5t66.5 -69.5t40 -79.5t19.5 -79.5t5 -69v-25q0 -32 -7 -75t-26.5 -87.5t-55 -85t-91.5 -67.5q67 -26 107.5 -68.5t62.5 -89t28.5 -92t6.5 -78.5v-51q0 -30 -6 -69.5t-22 -81.5t-43.5 -82t-70 -71.5t-102 -51t-139.5 -19.5h-432z" />
    <glyph glyph-name="C" unicode="C" horiz-adv-x="1067" 
d="M147 356v744q0 84 28 153t80.5 118.5t127.5 76.5t168 27q91 0 165.5 -27.5t126.5 -77t80.5 -119t28.5 -153.5h-112q0 71 -22.5 121.5t-62 82.5t-92 47t-112.5 15t-113 -15t-92.5 -47t-62.5 -83t-23 -123v-736q0 -72 23 -123t62.5 -83t92.5 -47t113 -15t112.5 15t92 47
t62 83t22.5 123h112v-2q0 -84 -28.5 -153.5t-80.5 -119t-126.5 -76.5t-165.5 -27q-93 0 -168 27t-127.5 76.5t-80.5 118t-28 152.5z" />
    <glyph glyph-name="D" unicode="D" horiz-adv-x="1122" 
d="M281 111h305q58 0 108 15t87 47.5t58 84.5t21 127v696q0 70 -20.5 121t-57 84t-86.5 48.5t-110 15.5h-305v-1239zM168 0v1460h418q91 0 163 -27t121.5 -76.5t76 -119t26.5 -154.5v-700q0 -87 -26 -157.5t-75.5 -120.5t-121.5 -77.5t-164 -27.5h-418z" />
    <glyph glyph-name="E" unicode="E" horiz-adv-x="1042" 
d="M168 0v1460h766v-110h-653v-521h604v-110h-604v-608h653v-111h-766z" />
    <glyph glyph-name="F" unicode="F" horiz-adv-x="1022" 
d="M168 0v1460h766v-110h-653v-523h604v-110h-604v-717h-113z" />
    <glyph glyph-name="G" unicode="G" horiz-adv-x="1102" 
d="M147 356v744q0 84 28 153t80.5 118.5t127.5 76.5t168 27q91 0 165.5 -27.5t126.5 -77t80.5 -119t28.5 -153.5h-112q0 71 -22.5 121.5t-62 82.5t-92 47t-112.5 15t-113 -15t-92.5 -47t-62.5 -83t-23 -123v-736q0 -72 23 -123t62.5 -83t92.5 -47t113 -15q59 0 111.5 14.5
t91.5 46t62 82t24 121.5v316h-312v110h424v-424q0 -84 -28.5 -153.5t-80.5 -119t-126.5 -76.5t-165.5 -27q-93 0 -168 27t-127.5 76.5t-80.5 118t-28 152.5z" />
    <glyph glyph-name="H" unicode="H" horiz-adv-x="1171" 
d="M168 0v1460h113v-637h608v637h112v-1460h-112v713h-608v-713h-113z" />
    <glyph glyph-name="I" unicode="I" horiz-adv-x="451" 
d="M168 0v1460h113v-1460h-113z" />
    <glyph glyph-name="J" unicode="J" horiz-adv-x="926" 
d="M45 354h113q0 -82 24.5 -133.5t61 -80t80 -38.5t82.5 -10q40 0 84 10t80 38t59.5 77.5t23.5 128.5v1004h-450v110h563v-1102q0 -88 -24.5 -158t-71.5 -118.5t-114.5 -74t-152.5 -25.5q-84 0 -150.5 27t-112.5 76t-70.5 117.5t-24.5 151.5z" />
    <glyph glyph-name="K" unicode="K" horiz-adv-x="1044" 
d="M168 0v1460h113v-772l544 772h129l-452 -647l485 -813h-131l-424 717l-151 -228v-489h-113z" />
    <glyph glyph-name="L" unicode="L" horiz-adv-x="969" 
d="M168 0v1460h113v-1349h651v-111h-764z" />
    <glyph glyph-name="M" unicode="M" horiz-adv-x="1358" 
d="M168 0v1460h162l348 -839l344 839h166v-1460h-113v1303l-344 -838h-106l-344 838v-1303h-113z" />
    <glyph glyph-name="N" unicode="N" horiz-adv-x="1153" 
d="M168 0v1460h151l551 -1302v1302h113v-1460h-158l-544 1286v-1286h-113z" />
    <glyph glyph-name="O" unicode="O" horiz-adv-x="1100" 
d="M260 360q0 -72 23 -123t62.5 -83t92.5 -47t113 -15t112.5 15t92 47t62 83t22.5 123v736q0 72 -22.5 123t-62 83t-92 47t-112.5 15t-113 -15t-92.5 -47t-62.5 -83t-23 -123v-736zM147 356v744q0 84 28 153t80.5 118.5t127.5 76.5t168 27q91 0 165.5 -27.5t126.5 -77
t80.5 -119t28.5 -153.5v-740q0 -84 -28.5 -153.5t-80.5 -119t-126.5 -76.5t-165.5 -27q-93 0 -168 27t-127.5 76.5t-80.5 118t-28 152.5z" />
    <glyph glyph-name="P" unicode="P" horiz-adv-x="1071" 
d="M281 707h309q36 0 82.5 9.5t88.5 38t70.5 81.5t28.5 141v104q0 58 -13.5 101t-36 73t-51.5 48.5t-59.5 29t-60 14t-53.5 3.5h-305v-643zM168 0v1460h422q80 0 139.5 -19.5t102 -51t70 -71.5t43.5 -82t22 -81.5t6 -69.5v-110q0 -31 -6 -71.5t-21.5 -82.5t-42.5 -82.5
t-68.5 -72t-100 -51t-136.5 -19.5h-317v-596h-113z" />
    <glyph glyph-name="Q" unicode="Q" horiz-adv-x="1102" 
d="M260 360q0 -65 18 -112t50 -79t75.5 -50.5t94.5 -24.5v291h102v-291q51 6 94.5 24t76 50t51 79.5t18.5 112.5v736q0 72 -22.5 123t-62 83t-92 47t-112.5 15t-113 -15t-92.5 -47t-62.5 -83t-23 -123v-736zM147 356v744q0 84 28 153t80.5 118.5t127.5 76.5t168 27
q91 0 165.5 -27.5t126.5 -77t80.5 -119t28.5 -153.5v-740q0 -79 -25 -145t-70.5 -114.5t-110.5 -78t-146 -36.5v-209h-102v209q-81 7 -146 37.5t-110.5 79t-70 113.5t-24.5 142z" />
    <glyph glyph-name="R" unicode="R" horiz-adv-x="1108" 
d="M281 748h309q36 0 82.5 9.5t88.5 38t70.5 81.5t28.5 141v63q0 58 -13.5 101t-36 73t-51.5 48.5t-59.5 29t-60 14t-53.5 3.5h-305v-602zM168 0v1460h422q80 0 139.5 -19t102 -50.5t70 -71.5t43.5 -81.5t22 -81t6 -69.5v-71q0 -42 -11.5 -98t-42.5 -110.5t-87 -99.5
t-144 -63l307 -645h-129l-297 637h-288v-637h-113z" />
    <glyph glyph-name="S" unicode="S" horiz-adv-x="1063" 
d="M109 360h112q0 -64 22.5 -114t62.5 -84.5t94.5 -53t119.5 -18.5q73 0 132 20.5t101 57t64.5 87t22.5 110.5q0 48 -11 86t-32 68.5t-50.5 55.5t-66.5 46q-48 27 -92.5 50.5t-88 46.5t-87 45.5t-88.5 47.5q-42 22 -77 54t-60.5 71.5t-39.5 86t-14 97.5q0 78 29 143.5
t80.5 113t123.5 74t158 26.5q90 0 164.5 -28t128.5 -78t83.5 -119t29.5 -150h-113q0 64 -22 113.5t-61.5 83t-93 50.5t-116.5 17q-58 0 -109 -16.5t-88.5 -48t-59 -79t-21.5 -108.5q0 -69 37.5 -124.5t109.5 -92.5q79 -40 160.5 -81.5t177.5 -94.5q106 -59 163.5 -150.5
t57.5 -210.5q0 -82 -33.5 -151.5t-91.5 -120.5t-136.5 -79.5t-168.5 -28.5q-95 0 -171 29.5t-130 80.5t-83 120.5t-29 149.5z" />
    <glyph glyph-name="T" unicode="T" horiz-adv-x="967" 
d="M57 1350v110h850v-110h-368v-1350h-113v1350h-369z" />
    <glyph glyph-name="U" unicode="U" horiz-adv-x="1100" 
d="M147 356v1104h113v-1100q0 -72 23 -123t62.5 -83t92.5 -47t113 -15t112.5 15t92 47t62 83t22.5 123v1100h112v-1102q0 -84 -28.5 -153.5t-80.5 -119t-126.5 -76.5t-165.5 -27q-93 0 -168 27t-127.5 76.5t-80.5 118t-28 152.5z" />
    <glyph glyph-name="V" unicode="V" horiz-adv-x="1071" 
d="M53 1460h109l354 -1354h29l354 1354h109l-385 -1460h-185z" />
    <glyph glyph-name="W" unicode="W" horiz-adv-x="1626" 
d="M57 1460h115l266 -1354l316 1352h116l314 -1352l268 1354h115l-305 -1460h-156l-293 1253l-297 -1253h-156z" />
    <glyph glyph-name="X" unicode="X" horiz-adv-x="999" 
d="M57 0l379 735l-377 725h125l312 -624l315 624h125l-377 -725l381 -735h-129l-313 629l-312 -629h-129z" />
    <glyph glyph-name="Y" unicode="Y" horiz-adv-x="1001" 
d="M57 1460h123l320 -794l319 794h123l-387 -934v-526h-113v528z" />
    <glyph glyph-name="Z" unicode="Z" horiz-adv-x="928" 
d="M66 0v115l641 1235h-613v110h731v-108l-641 -1241h676v-111h-794z" />
    <glyph glyph-name="bracketleft" unicode="[" horiz-adv-x="623" 
d="M168 -174v1759h285v-100h-183v-1559h183v-100h-285z" />
    <glyph glyph-name="backslash" unicode="\" horiz-adv-x="999" 
d="M168 1573h111l550 -1690h-108z" />
    <glyph glyph-name="bracketright" unicode="]" horiz-adv-x="623" 
d="M168 -74h182v1559h-182v100h285v-1759h-285v100z" />
    <glyph glyph-name="asciicircum" unicode="^" horiz-adv-x="999" 
d="M168 942l278 518h109l274 -518h-112l-217 406l-217 -406h-115z" />
    <glyph glyph-name="underscore" unicode="_" horiz-adv-x="1081" 
d="M-4 -246h1087v-92h-1087v92z" />
    <glyph glyph-name="grave" unicode="`" horiz-adv-x="616" 
d="M168 1538h131l147 -301h-102z" />
    <glyph glyph-name="a" unicode="a" horiz-adv-x="1069" 
d="M231 324q0 -71 21.5 -116t58.5 -71t84.5 -35.5t100.5 -9.5q55 0 108.5 17.5t96 52t68.5 84t26 114.5v156h-334q-51 0 -93.5 -10.5t-73 -34t-47 -60t-16.5 -87.5zM119 324q0 72 25.5 127t70.5 92t106.5 56t133.5 19h340v132q0 69 -19.5 114.5t-54 73t-82 38.5t-102.5 11
q-51 0 -98.5 -11t-84 -37.5t-58.5 -69t-22 -105.5h-112q0 61 16.5 109.5t44.5 85.5t65 63.5t78.5 43t84.5 24.5t84 8q68 0 135 -17.5t119.5 -58t85 -106t32.5 -160.5v-756h-112v129q-51 -71 -133.5 -109t-190.5 -38q-66 0 -129.5 19.5t-113 61t-79.5 106t-30 155.5z" />
    <glyph glyph-name="b" unicode="b" horiz-adv-x="1096" 
d="M281 362q0 -46 11 -94t41 -87.5t84 -65t140 -25.5q131 0 204 71t73 201v355q0 46 -11.5 94t-42 87t-84.5 64t-139 25q-133 0 -204.5 -70t-71.5 -200v-355zM168 0v1460h113v-489q57 68 124.5 97.5t151.5 29.5q90 0 162 -26.5t122.5 -76t77.5 -120t27 -158.5v-355
q0 -87 -27.5 -158t-78.5 -120.5t-123 -76.5t-160 -27q-84 0 -157.5 30.5t-118.5 95.5v-106h-113z" />
    <glyph glyph-name="c" unicode="c" horiz-adv-x="1049" 
d="M147 362v355q0 87 28.5 157t81 120t126 77t162.5 27q87 0 157.5 -24.5t121.5 -71t80.5 -113t33.5 -150.5h-113q-2 44 -16 88t-45.5 79.5t-84.5 58t-134 22.5q-66 0 -119 -18t-89.5 -52.5t-56.5 -85t-20 -114.5v-355q0 -46 12 -94t44 -87.5t87.5 -65t141.5 -25.5
q124 0 197 63t81 179h115q-5 -81 -35 -146t-81.5 -110.5t-122 -70.5t-154.5 -25q-91 0 -164.5 26.5t-125.5 76t-80 120t-28 159.5z" />
    <glyph glyph-name="d" unicode="d" horiz-adv-x="1098" 
d="M260 362q0 -130 72.5 -201t204.5 -71q86 0 140 25.5t85 65t42 87.5t11 94v355q0 130 -72.5 200t-205.5 70q-86 0 -139.5 -25t-84.5 -64t-42 -87t-11 -94v-355zM147 362v355q0 88 27 158.5t78 120t123 76t162 26.5q83 0 152 -29.5t126 -97.5v489h113v-1460h-113v106
q-45 -65 -120 -95.5t-158 -30.5q-89 0 -161 27t-123 76.5t-78.5 120.5t-27.5 158z" />
    <glyph glyph-name="e" unicode="e" horiz-adv-x="1087" 
d="M260 623h565v94q0 46 -12 94t-43 87t-85.5 64t-139.5 25q-66 0 -119 -18t-89.5 -52.5t-56.5 -85t-20 -114.5v-94zM147 362v355q0 87 28.5 157t81 120t126 77t162.5 27q90 0 162.5 -26.5t124.5 -76t80 -120t28 -158.5v-205h-680v-150q0 -46 12 -94t44 -87.5t87.5 -65
t141.5 -25.5q124 0 198 63t82 179h113q-5 -81 -35 -146t-81.5 -110.5t-122 -70.5t-154.5 -25q-91 0 -164.5 26.5t-125.5 76t-80 120t-28 159.5z" />
    <glyph glyph-name="f" unicode="f" horiz-adv-x="670" 
d="M47 969v110h195v86q0 68 16.5 122.5t51 93t87 59t123.5 20.5h76v-110h-96q-24 0 -50 -7.5t-47 -26t-35 -49.5t-14 -77v-111h267v-110h-267v-969h-112v969h-195z" />
    <glyph glyph-name="g" unicode="g" horiz-adv-x="1096" 
d="M260 362q0 -46 11 -94t42 -87.5t85.5 -65t140.5 -25.5q131 0 202.5 71t71.5 201v355q0 46 -11 94t-41 87t-83.5 64t-138.5 25q-134 0 -206.5 -70t-72.5 -200v-355zM147 362v355q0 87 28 157t79 120t123.5 77t161.5 27q40 0 81 -7.5t77.5 -23.5t66.5 -39.5t49 -54.5v106
h113v-1173q0 -108 -32.5 -179.5t-86.5 -113.5t-124 -59t-144 -17q-77 0 -143.5 21.5t-117 62t-80.5 99t-34 133.5h112q8 -101 78.5 -153t184.5 -52q48 0 96.5 7.5t88 34t64.5 77.5t25 139v200q-49 -68 -121 -97t-153 -29q-91 0 -163.5 26.5t-123.5 76t-78 120t-27 159.5z
" />
    <glyph glyph-name="h" unicode="h" horiz-adv-x="1110" 
d="M168 0v1460h113v-510q25 40 59.5 68t74 46t82 26t83.5 8q90 0 158.5 -26t115 -75.5t70.5 -120t24 -159.5v-717h-112v717q0 45 -8 93t-34.5 87.5t-77 64.5t-136.5 25q-62 0 -116.5 -19.5t-95 -54.5t-64 -84t-23.5 -108v-721h-113z" />
    <glyph glyph-name="i" unicode="i" horiz-adv-x="479" 
d="M184 0v1079h113v-1079h-113zM166 1278v182h147v-182h-147z" />
    <glyph glyph-name="j" unicode="j" horiz-adv-x="471" 
d="M158 1278v182h147v-182h-147zM4 -352h27q29 0 55 7t45.5 24.5t31 45.5t11.5 70v1284h113v-1274q0 -71 -19.5 -122t-53 -83.5t-78 -47.5t-95.5 -15h-37v111z" />
    <glyph glyph-name="k" unicode="k" horiz-adv-x="1018" 
d="M168 0v1460h113v-964l528 583h147l-409 -446l411 -633h-133l-352 551l-192 -211v-340h-113z" />
    <glyph glyph-name="l" unicode="l" horiz-adv-x="492" 
d="M160 268v1192h112v-1202q0 -42 11.5 -70.5t31 -45.5t46 -24t55.5 -7h26v-111h-36q-51 0 -96 15t-78 47.5t-52.5 83.5t-19.5 122z" />
    <glyph glyph-name="m" unicode="m" horiz-adv-x="1556" 
d="M168 0v1079h113v-108q27 40 59.5 64.5t67.5 38.5t72 19t75 5q46 0 84 -13t67 -35.5t50.5 -53t34.5 -64.5q30 51 68.5 83.5t80 51t84.5 25t82 6.5q79 0 134 -28t89.5 -72t50 -98t15.5 -105v-795h-113v780q0 41 -9.5 78.5t-31.5 66t-57.5 45.5t-87.5 17q-136 0 -197 -77.5
t-61 -217.5v-692h-113v774q0 40 -10.5 78.5t-32.5 68.5t-57 48t-84 18q-137 0 -198.5 -77t-61.5 -220v-690h-113z" />
    <glyph glyph-name="n" unicode="n" horiz-adv-x="1110" 
d="M168 0v1079h113v-129q27 42 61.5 70t73.5 45.5t80.5 25t83.5 7.5q90 0 158.5 -26t115 -75.5t70.5 -120t24 -159.5v-717h-112v717q0 45 -8 93t-34.5 87.5t-77 64.5t-136.5 25q-62 0 -116.5 -19.5t-95 -54.5t-64 -84t-23.5 -108v-721h-113z" />
    <glyph glyph-name="o" unicode="o" horiz-adv-x="1087" 
d="M260 362q0 -46 12 -94t44 -87.5t87.5 -65t141.5 -25.5q65 0 117.5 18.5t89 53t56 85t19.5 115.5v355q0 46 -12 94t-43.5 87t-86.5 64t-140 25q-66 0 -119 -18t-89.5 -52.5t-56.5 -85t-20 -114.5v-355zM147 362v355q0 87 28.5 157t81 120t126 77t162.5 27
q90 0 162.5 -26.5t124.5 -76t80 -120t28 -158.5v-355q0 -87 -28.5 -158t-80.5 -120.5t-125 -76.5t-161 -27q-91 0 -164.5 26.5t-125.5 76t-80 120t-28 159.5z" />
    <glyph glyph-name="p" unicode="p" horiz-adv-x="1098" 
d="M281 362q0 -130 72.5 -201t203.5 -71q86 0 140.5 25.5t85 65t42 87.5t11.5 94v355q0 130 -73 200t-206 70q-85 0 -139 -25t-84.5 -64t-41.5 -87t-11 -94v-355zM168 -463v1542h113v-104q24 34 55 58t66.5 38t74.5 20.5t80 6.5q89 0 161.5 -27t123.5 -77t78.5 -120
t27.5 -157v-355q0 -89 -27 -159.5t-77.5 -120t-123 -76t-163.5 -26.5q-41 0 -80.5 7.5t-75.5 23t-67 40t-53 58.5v-572h-113z" />
    <glyph glyph-name="q" unicode="q" horiz-adv-x="1096" 
d="M260 362q0 -46 11 -94t42 -87.5t85.5 -65t140.5 -25.5q131 0 202.5 71t71.5 201v355q0 46 -11 94t-41 87t-83.5 64t-138.5 25q-134 0 -206.5 -70t-72.5 -200v-355zM147 362v355q0 87 28 157t79 120t123.5 77t161.5 27q81 0 153 -29t121 -94v104h113v-1542h-113v572
q-27 -38 -58 -63t-65.5 -39.5t-72.5 -20.5t-78 -6q-91 0 -163.5 26.5t-123.5 76t-78 120t-27 159.5z" />
    <glyph glyph-name="r" unicode="r" horiz-adv-x="641" 
d="M168 0v1079h113v-133q19 38 46 63.5t57 41t61.5 22t60.5 6.5h65v-110h-67q-36 0 -75.5 -14.5t-72 -47t-54 -85t-21.5 -128.5v-694h-113z" />
    <glyph glyph-name="s" unicode="s" horiz-adv-x="1008" 
d="M109 319h112q0 -55 20 -97t56.5 -70.5t88 -43t114.5 -14.5q52 0 103 8.5t91 32.5t65 66t25 110q0 33 -11 58t-30 43.5t-46 32t-58 22.5q-34 10 -71.5 19.5t-75 17.5t-73 16t-65.5 15q-48 10 -89.5 33t-72.5 56t-49 76t-18 93q0 81 30 138t81 94t118 54t140 17
q85 0 156 -22t122.5 -64t80.5 -104t30 -142h-113q-2 105 -71 163t-210 58q-46 0 -91 -8t-80.5 -29.5t-57.5 -59t-22 -95.5q0 -54 40 -95t105 -57q27 -6 63 -13.5t76 -16.5t79.5 -18.5t74.5 -19.5q48 -14 88.5 -37t70 -56t46 -75t16.5 -94q0 -90 -32 -152t-86.5 -101
t-126.5 -56.5t-152 -17.5q-86 0 -157.5 23t-123.5 66t-81 105t-29 141z" />
    <glyph glyph-name="t" unicode="t" horiz-adv-x="725" 
d="M47 969v110h215v381h113v-381h246v-110h-246v-711q0 -42 11.5 -70.5t31 -45.5t45.5 -24t55 -7h107v-111h-117q-51 0 -95.5 15t-78 47.5t-53 83.5t-19.5 122v701h-215z" />
    <glyph glyph-name="u" unicode="u" horiz-adv-x="1114" 
d="M160 362v717h112v-717q0 -46 11.5 -94t42 -87.5t85 -65t140.5 -25.5q61 0 112.5 18.5t89 52.5t58 82t20.5 107v729h113v-1079h-113v109q-55 -74 -127 -101.5t-153 -27.5q-91 0 -163.5 26.5t-123 76t-77.5 120.5t-27 159z" />
    <glyph glyph-name="v" unicode="v" horiz-adv-x="942" 
d="M59 1079h117l281 -975h30l279 975h117l-312 -1079h-198z" />
    <glyph glyph-name="w" unicode="w" horiz-adv-x="1432" 
d="M88 1079h115l217 -970l237 970h115l240 -970l215 970h114l-251 -1079h-150l-225 922l-226 -922h-147z" />
    <glyph glyph-name="x" unicode="x" horiz-adv-x="897" 
d="M37 0l346 541l-344 538h131l279 -450l276 450h131l-344 -540l346 -539h-135l-272 442l-283 -442h-131z" />
    <glyph glyph-name="y" unicode="y" horiz-adv-x="930" 
d="M57 1079h117l281 -975h30l269 975h116l-360 -1290q-23 -83 -53 -132.5t-69.5 -76t-89 -35t-110.5 -8.5h-10v111h37q36 0 64.5 5t50.5 19.5t38.5 41t28.5 69.5l62 217h-84z" />
    <glyph glyph-name="z" unicode="z" horiz-adv-x="918" 
d="M88 0v113l576 856h-555v110h673v-112l-575 -856h620v-111h-739z" />
    <glyph glyph-name="braceleft" unicode="{" horiz-adv-x="618" 
d="M168 86v1274q0 70 12 109.5t41 68.5q26 26 68.5 39.5t111.5 13.5h48v-100h-37q-48 0 -73 -3t-40 -20q-19 -18 -24 -50.5t-5 -82.5v-1233q0 -49 6 -77.5t23 -47.5q15 -17 40 -19.5t73 -2.5h37v-100h-48q-69 0 -111.5 13.5t-68.5 39.5q-15 15 -25 31t-16 37t-9 48t-3 62z
" />
    <glyph glyph-name="bar" unicode="|" horiz-adv-x="442" 
d="M168 -119v1696h102v-1696h-102z" />
    <glyph glyph-name="braceright" unicode="}" horiz-adv-x="627" 
d="M168 -47h43h27q34 0 54 3t34 17q17 17 22.5 46.5t5.5 78.5v1243q0 50 -5.5 79t-22.5 46t-42.5 20t-72.5 3h-43v100h53q69 0 112 -13.5t70 -39.5q29 -29 41.5 -68.5t12.5 -109.5v-1274q0 -35 -3 -62t-9.5 -48t-16.5 -37t-25 -31q-27 -26 -70 -39.5t-112 -13.5h-53v100z
" />
    <glyph glyph-name="asciitilde" unicode="~" horiz-adv-x="1094" 
d="M168 539q36 36 64.5 58.5t53.5 35.5t49.5 17.5t53.5 4.5q43 0 82 -15.5t77.5 -33.5t77.5 -33.5t81 -15.5q18 0 34 2.5t32.5 11t35.5 23.5t45 41l70 -55q-37 -36 -65.5 -59t-54 -36t-50 -17.5t-52.5 -4.5q-39 0 -78.5 15.5t-79 33.5t-80 33.5t-81.5 15.5q-18 0 -34 -2.5
t-32.5 -11t-36 -24t-44.5 -40.5z" />
    <glyph glyph-name="uni00A0" unicode="&#xa0;" horiz-adv-x="451" 
 />
    <glyph glyph-name="exclamdown" unicode="&#xa1;" horiz-adv-x="508" 
d="M193 -342v1032h112v-1032h-112zM164 944v170h170v-170h-170z" />
    <glyph glyph-name="cent" unicode="&#xa2;" horiz-adv-x="1049" 
d="M147 362v355q0 80 25 146t70.5 115.5t109.5 79.5t142 38v290h102v-290q76 -7 137.5 -34.5t106 -73.5t69.5 -108.5t29 -140.5h-113q-2 44 -16 88t-45.5 79.5t-84.5 58t-134 22.5q-66 0 -119 -18t-89.5 -52.5t-56.5 -85t-20 -114.5v-355q0 -46 12 -94t44 -87.5t87.5 -65
t141.5 -25.5q124 0 198 63t82 179h113q-5 -75 -31 -136.5t-70.5 -106.5t-105.5 -72.5t-135 -34.5v-291h-102v291q-80 7 -144 36t-109 78t-69.5 116t-24.5 150z" />
    <glyph glyph-name="sterling" unicode="&#xa3;" 
d="M109 725v111h79v260q0 82 26 151t74.5 118.5t117.5 77t155 27.5q84 0 154 -27.5t121 -77t79.5 -118.5t28.5 -151h-113q0 84 -28.5 136t-70 80.5t-89 38t-84.5 9.5q-41 0 -86 -10.5t-83.5 -39.5t-63.5 -79.5t-25 -130.5v-264h453v-111h-453v-614h641v-111h-754v725h-79z
" />
    <glyph glyph-name="yen" unicode="&#xa5;" 
d="M88 1460h119l319 -794l320 794h119l-342 -833h251v-103h-292v-200h292v-103h-292v-221h-113v221h-289v103h289v198l-2 2h-287v103h246z" />
    <glyph glyph-name="brokenbar" unicode="&#xa6;" horiz-adv-x="442" 
d="M164 885v631h112v-631h-112zM164 -57v632h112v-632h-112z" />
    <glyph glyph-name="section" unicode="&#xa7;" horiz-adv-x="1141" 
d="M289 793q0 -54 33.5 -95t95.5 -55q91 -20 170 -37t147 -33q44 -9 80 -30q22 24 35.5 58.5t13.5 82.5q0 33 -11 59.5t-29.5 46.5t-44 33.5t-54.5 20.5q-62 14 -147.5 32.5t-178.5 38.5q-14 4 -27.5 7.5t-25.5 9.5q-28 -23 -42.5 -57t-14.5 -82zM168 319h113
q0 -55 20 -97.5t56 -71t87.5 -43.5t114.5 -15q52 0 104 9t93.5 33t67.5 66.5t26 110.5q0 33 -11 59.5t-29.5 46.5t-44 33.5t-54.5 20.5q-62 14 -147.5 33t-178.5 39q-43 9 -80 30.5t-64.5 53.5t-43 74t-15.5 92q0 66 20.5 115.5t55.5 86.5q-29 32 -45 75t-16 95q0 81 30 138
t81 94t117.5 54t139.5 17q86 0 157.5 -22t123 -65t80 -105t28.5 -143h-112q0 106 -69.5 167.5t-211.5 61.5q-46 0 -92 -9t-83 -31t-60 -60.5t-23 -96.5q0 -54 33.5 -94.5t95.5 -54.5q91 -20 170 -37t148 -33q48 -11 88.5 -33.5t70 -56.5t46 -77.5t16.5 -94.5
q0 -68 -19 -120.5t-51 -90.5q26 -32 40.5 -73t14.5 -89q0 -90 -32 -152t-86.5 -101t-126.5 -56.5t-152 -17.5q-85 0 -157 23t-124 66t-81 105t-29 141z" />
    <glyph glyph-name="dieresis" unicode="&#xa8;" horiz-adv-x="926" 
d="M608 1276v184h148v-184h-148zM168 1276v184h147v-184h-147z" />
    <glyph glyph-name="copyright" unicode="&#xa9;" horiz-adv-x="1806" 
d="M666 522v400q0 26 8.5 63.5t33 72t68 59t113.5 24.5q69 0 112 -25t67.5 -60t33 -72.5t8.5 -63.5h-94q0 40 -13 65.5t-32 39.5t-41.5 19t-40.5 5t-40 -5t-42 -19.5t-33.5 -40t-13.5 -66.5v-394q0 -41 13.5 -67t33.5 -40.5t42 -20t40 -5.5t40.5 5.5t41.5 19.5t32 39.5
t13 66.5h94q0 -18 -3.5 -41.5t-13 -48t-25.5 -48.5t-41 -43t-60 -30.5t-82 -11.5q-69 0 -112 25t-67 60t-32 73t-8 65zM270 723q0 -132 50 -247.5t136 -202t201 -136t246 -49.5q87 0 167.5 22.5t150.5 64t128 99t99 128t63.5 152t22.5 169.5q0 87 -22.5 168.5t-63.5 152
t-99 128.5t-128 99.5t-150.5 64t-167.5 22.5q-131 0 -246 -49.5t-201 -136t-136 -202t-50 -247.5zM168 723q0 101 26.5 195t74 175.5t115 149t149 115t175.5 74t195 26.5t195 -26.5t175.5 -74t148.5 -115t114.5 -149t73.5 -175.5t26 -195q0 -102 -26 -195.5t-73.5 -175.5
t-114.5 -149t-148.5 -115t-175.5 -74t-195 -26t-195 26t-175.5 74t-149 115t-115 149t-74 176t-26.5 195z" />
    <glyph glyph-name="ordfeminine" unicode="&#xaa;" horiz-adv-x="844" 
d="M252 952q0 -41 13 -67.5t34.5 -42t50 -21.5t60.5 -6q33 0 65 10.5t57.5 31t41.5 50t16 68.5v92h-203q-62 0 -98.5 -27.5t-36.5 -87.5zM160 952q0 48 17 85.5t47 62.5t71.5 38t89.5 13h205v74q0 40 -12 67.5t-33 43.5t-49 23t-60 7q-30 0 -58.5 -7.5t-50 -24.5t-35 -44
t-13.5 -67h-93q0 63 24 107.5t60.5 72t80 40.5t83.5 13q45 0 89.5 -12t80 -38.5t57 -70t21.5 -106.5v-492h-92v64q-34 -35 -81.5 -55.5t-102.5 -20.5q-51 0 -96 13t-78 40.5t-52.5 70.5t-19.5 103z" />
    <glyph glyph-name="guillemotleft" unicode="&#xab;" horiz-adv-x="1001" 
d="M481 543l371 370v-147l-227 -223l227 -226v-145zM66 543l370 370v-147l-225 -223l225 -226v-145z" />
    <glyph glyph-name="logicalnot" unicode="&#xac;" horiz-adv-x="1155" 
d="M160 713v110h833v-463h-112v353h-721z" />
    <glyph glyph-name="uni00AD" unicode="&#xad;" horiz-adv-x="1204" 
d="M172 530v103h860v-103h-860z" />
    <glyph glyph-name="registered" unicode="&#xae;" horiz-adv-x="1806" 
d="M782 723h156q18 0 40 5t41.5 19t32.5 39.5t13 67.5v45q0 42 -13.5 67.5t-33 39.5t-42 19t-40.5 5h-154v-307zM692 305v815h244q69 0 112 -24.5t66.5 -58.5t32 -71.5t8.5 -62.5v-49q0 -24 -7 -57.5t-26.5 -66.5t-54.5 -59t-92 -34l168 -332h-103l-168 330h-90v-330h-90z
M270 723q0 -132 50 -247.5t136 -202t201 -136t246 -49.5q87 0 167.5 22.5t150.5 64t128 99t99 128t63.5 152t22.5 169.5t-22.5 169.5t-63.5 152t-99 128t-128 99t-150.5 64t-167.5 22.5q-131 0 -246 -49.5t-201 -136t-136 -202t-50 -247.5zM168 723q0 101 26.5 195t74 175.5
t115 149t149 115t175.5 74t195 26.5t195 -26.5t175.5 -74t148.5 -115t114.5 -149t73.5 -175.5t26 -195q0 -102 -26 -195.5t-73.5 -175.5t-114.5 -149t-148.5 -115t-175.5 -74t-195 -26t-195 26t-175.5 74t-149 115t-115 149t-74 176t-26.5 195z" />
    <glyph glyph-name="macron" unicode="&#xaf;" horiz-adv-x="944" 
d="M168 1300v103h606v-103h-606z" />
    <glyph glyph-name="degree" unicode="&#xb0;" horiz-adv-x="711" 
d="M193 1206q0 -33 12.5 -63t34 -52.5t50.5 -35.5t62 -13q34 0 63.5 13t52 35.5t35.5 52.5t13 63q0 34 -13 63.5t-35.5 52t-52 35.5t-63.5 13q-33 0 -62 -13t-50.5 -35.5t-34 -52t-12.5 -63.5zM98 1206q0 54 20 100.5t54.5 81t81 54.5t98.5 20q54 0 101 -20t82 -54.5t55 -81
t20 -100.5q0 -52 -20 -98.5t-55 -81.5t-82 -55.5t-101 -20.5q-52 0 -98.5 20.5t-81 55.5t-54.5 81.5t-20 98.5z" />
    <glyph glyph-name="plusminus" unicode="&#xb1;" horiz-adv-x="1163" 
d="M160 530v103h368v336h105v-336h368v-103h-368v-342h-105v342h-368zM160 0v102h839v-102h-839z" />
    <glyph glyph-name="uni00B2" unicode="&#xb2;" horiz-adv-x="752" 
d="M160 739v148q0 58 28.5 99t69.5 73q23 17 48 31.5t50.5 29.5t50.5 31.5t48 36.5t33 41t10 49q0 57 -31 88t-90 31q-53 0 -88 -33t-35 -96h-94q0 48 16.5 89t45.5 70t68.5 45.5t86.5 16.5q48 0 87 -15t67 -42.5t43.5 -66t15.5 -85.5q0 -56 -20 -93.5t-54 -66.5
q-23 -20 -49 -36t-53 -31.5t-53.5 -32t-51.5 -37.5q-25 -22 -40 -43t-15 -59v-50h334v-92h-428z" />
    <glyph glyph-name="uni00B3" unicode="&#xb3;" horiz-adv-x="745" 
d="M160 950h92q0 -41 13 -66t31.5 -39t39 -19t35.5 -5t36 4t40 16.5t32 34.5t13 58v51q0 36 -13.5 57.5t-32.5 33t-39.5 15t-35.5 3.5h-52v73l140 219h-269v93h379v-86l-139 -215q48 -9 78 -30.5t47 -48.5t23 -56.5t6 -55.5v-53q0 -26 -9.5 -61.5t-33.5 -67.5t-65 -55
t-103 -23q-64 0 -105 22.5t-65 56.5t-33.5 73t-9.5 71z" />
    <glyph glyph-name="acute" unicode="&#xb4;" horiz-adv-x="616" 
d="M168 1237l147 301h131l-178 -301h-100z" />
    <glyph glyph-name="uni00B5" unicode="&#xb5;" horiz-adv-x="1122" 
d="M168 -463v1542h113v-717q0 -46 11 -94t42 -87t85 -64t140 -25q61 0 113 18t89 52t58 81.5t21 106.5v729h112v-1079h-112v104q-29 -38 -62.5 -61.5t-70.5 -37t-74.5 -18.5t-73.5 -5q-32 0 -69 4.5t-74.5 15t-72.5 28.5t-62 46v-539h-113z" />
    <glyph glyph-name="paragraph" unicode="&#xb6;" horiz-adv-x="1006" 
d="M-2 1135q0 86 25 149.5t72 105.5t115.5 62.5t154.5 20.5h438v-1473h-113v1362h-211v-1362h-112v819q-85 0 -153 24.5t-116 67t-74 100.5t-26 124z" />
    <glyph glyph-name="periodcentered" unicode="&#xb7;" horiz-adv-x="516" 
d="M168 457v180h178v-180h-178z" />
    <glyph glyph-name="cedilla" unicode="&#xb8;" horiz-adv-x="578" 
d="M129 -389l178 301h101l-148 -301h-131z" />
    <glyph glyph-name="uni00B9" unicode="&#xb9;" horiz-adv-x="713" 
d="M160 739v92h149v555l-110 -10v90l202 21v-656h150v-92h-391z" />
    <glyph glyph-name="ordmasculine" unicode="&#xba;" horiz-adv-x="848" 
d="M252 975q0 -28 7 -57t26 -53t52 -39t85 -15q78 0 125 42.5t47 121.5v225q0 28 -7.5 57.5t-27 53t-53 38.5t-84.5 15q-81 0 -125.5 -42.5t-44.5 -121.5v-225zM160 975v225q0 58 19 105t53.5 80t82.5 51t107 18q60 0 108.5 -17.5t83 -50.5t53.5 -80t19 -106v-225
q0 -59 -19 -106t-53.5 -80t-83.5 -50.5t-108 -17.5q-60 0 -108.5 17.5t-82.5 50.5t-52.5 80t-18.5 106z" />
    <glyph glyph-name="guillemotright" unicode="&#xbb;" horiz-adv-x="999" 
d="M563 174v145l223 226l-223 223v147l369 -370zM147 174v145l226 226l-226 223v147l369 -370z" />
    <glyph glyph-name="onequarter" unicode="&#xbc;" horiz-adv-x="1473" 
d="M899 205v86l168 452h92l-164 -446h224v270h92v-567h-92v205h-320zM408 -111l555 1690h100l-551 -1690h-104zM160 739v92h149v555l-110 -10v90l202 21v-656h150v-92h-391z" />
    <glyph glyph-name="onehalf" unicode="&#xbd;" horiz-adv-x="1540" 
d="M948 0v147q0 57 28.5 98.5t70.5 73.5q30 23 71.5 45.5t78.5 48t63 56t26 70.5q0 57 -31 87.5t-90 30.5q-52 0 -87.5 -33t-35.5 -96h-94q0 48 16.5 89t45.5 70.5t68.5 46t86.5 16.5q48 0 87 -15t67 -42.5t43.5 -66t15.5 -85.5q0 -56 -19.5 -93.5t-53.5 -66.5
q-21 -19 -48.5 -35.5t-57 -33t-57.5 -34.5t-50.5 -38.5t-36 -44.5t-13.5 -54v-49h334v-92h-428zM408 -111l555 1690h100l-551 -1690h-104zM160 739v92h149v555l-110 -10v90l202 21v-656h150v-92h-391z" />
    <glyph glyph-name="threequarters" unicode="&#xbe;" horiz-adv-x="1493" 
d="M920 205v86l167 452h93l-164 -446h223v270h92v-567h-92v205h-319zM428 -111l555 1690h100l-551 -1690h-104zM160 950h92q0 -41 13 -66.5t31.5 -39.5t39 -19.5t35.5 -5.5t36 4.5t40 17t32 35t13 58.5v51q0 36 -13.5 57.5t-32.5 33t-39.5 15t-35.5 3.5h-52v73l140 219h-269
v93h379v-86l-139 -215q48 -9 78 -30.5t47 -48.5t23 -56.5t6 -55.5v-53q0 -26 -9.5 -61.5t-33.5 -67.5t-65 -55t-103 -23q-64 0 -105 22.5t-65 56.5t-33.5 73t-9.5 71z" />
    <glyph glyph-name="questiondown" unicode="&#xbf;" horiz-adv-x="874" 
d="M414 924v170h168v-170h-168zM55 12q0 75 25.5 129.5t62.5 98.5q25 30 57 56t65 51t64.5 50t57.5 52q29 30 44 72.5t15 111.5v51h113v-45q0 -46 -7.5 -84.5t-20 -70.5t-28.5 -57t-34 -44q-29 -32 -60.5 -56.5t-63 -48t-61.5 -47t-55 -51.5q-27 -31 -44 -69t-17 -97
q0 -140 73.5 -212t213.5 -72q23 0 53 3.5t61.5 13t62 27t55 46t40 70t18.5 98.5h113q0 -32 -8 -72t-27 -81t-49.5 -80t-75 -69t-105 -48.5t-138.5 -18.5q-89 0 -163 28.5t-126.5 80.5t-81.5 124.5t-29 159.5z" />
    <glyph glyph-name="Agrave" unicode="&#xc0;" horiz-adv-x="1106" 
d="M352 1898h131l147 -301h-102zM311 537h482l-224 823h-32zM55 0l402 1460h190l404 -1460h-111l-117 426h-542l-115 -426h-111z" />
    <glyph glyph-name="Aacute" unicode="&#xc1;" horiz-adv-x="1106" 
d="M475 1597l147 301h131l-178 -301h-100zM311 537h482l-224 823h-32zM55 0l402 1460h190l404 -1460h-111l-117 426h-542l-115 -426h-111z" />
    <glyph glyph-name="Acircumflex" unicode="&#xc2;" horiz-adv-x="1106" 
d="M311 537h482l-224 823h-32zM291 1597l205 301h112l205 -301h-102l-158 207l-158 -207h-104zM55 0l402 1460h190l404 -1460h-111l-117 426h-542l-115 -426h-111z" />
    <glyph glyph-name="Atilde" unicode="&#xc3;" horiz-adv-x="1106" 
d="M311 537h482l-224 823h-32zM238 1689q33 32 59.5 51.5t48 30t40 14t36.5 3.5q34 0 70 -14.5t70 -32t65 -32t55 -14.5q12 0 25 2.5t27.5 9t31 19t37.5 33.5l66 -64q-33 -32 -59.5 -51.5t-49 -30t-41 -13.5t-35.5 -3q-36 0 -70 14.5t-66 31.5t-63 31.5t-61 14.5
q-12 0 -24 -2t-26 -8.5t-31.5 -19t-39.5 -33.5zM55 0l402 1460h190l404 -1460h-111l-117 426h-542l-115 -426h-111z" />
    <glyph glyph-name="Adieresis" unicode="&#xc4;" horiz-adv-x="1106" 
d="M698 1598v184h148v-184h-148zM311 537h482l-224 823h-32zM258 1598v184h147v-184h-147zM55 0l402 1460h190l404 -1460h-111l-117 426h-542l-115 -426h-111z" />
    <glyph glyph-name="Aring" unicode="&#xc5;" horiz-adv-x="1106" 
d="M434 1743q0 -24 9.5 -45.5t25 -38t37 -26t45.5 -9.5t46 9.5t38.5 26t26.5 38t10 45.5t-10 46t-26.5 38t-38.5 25.5t-46 9.5t-45.5 -9.5t-37 -25.5t-25 -38t-9.5 -46zM348 1743q0 42 16 79.5t44 65.5t64.5 44t78.5 16q43 0 80.5 -16t65.5 -43.5t44.5 -65t16.5 -80.5
q0 -42 -16.5 -79t-44.5 -65t-65.5 -44.5t-80.5 -16.5q-42 0 -78.5 16.5t-64.5 44.5t-44 65t-16 79zM311 537h482l-224 823h-32zM55 0l402 1460h190l404 -1460h-111l-117 426h-542l-115 -426h-111z" />
    <glyph glyph-name="AE" unicode="&#xc6;" horiz-adv-x="1620" 
d="M303 537h440v811h-225zM55 0l381 1458h1075v-110h-655v-519h604v-110h-604v-608h655v-111h-768v426h-467l-112 -426h-109z" />
    <glyph glyph-name="Ccedilla" unicode="&#xc7;" horiz-adv-x="1067" 
d="M332 -389l178 301h101l-148 -301h-131zM147 356v744q0 84 28 153t80.5 118.5t127.5 76.5t168 27q91 0 165.5 -27.5t126.5 -77t80.5 -119t28.5 -153.5h-112q0 71 -22.5 121.5t-62 82.5t-92 47t-112.5 15t-113 -15t-92.5 -47t-62.5 -83t-23 -123v-736q0 -72 23 -123
t62.5 -83t92.5 -47t113 -15t112.5 15t92 47t62 83t22.5 123h112v-2q0 -84 -28.5 -153.5t-80.5 -119t-126.5 -76.5t-165.5 -27q-93 0 -168 27t-127.5 76.5t-80.5 118t-28 152.5z" />
    <glyph glyph-name="Egrave" unicode="&#xc8;" horiz-adv-x="1042" 
d="M340 1898h131l147 -301h-102zM168 0v1460h766v-110h-653v-521h604v-110h-604v-608h653v-111h-766z" />
    <glyph glyph-name="Eacute" unicode="&#xc9;" horiz-adv-x="1042" 
d="M442 1597l147 301h131l-178 -301h-100zM168 0v1460h766v-110h-653v-521h604v-110h-604v-608h653v-111h-766z" />
    <glyph glyph-name="Ecircumflex" unicode="&#xca;" horiz-adv-x="1042" 
d="M260 1597l205 301h112l205 -301h-102l-158 207l-158 -207h-104zM168 0v1460h766v-110h-653v-521h604v-110h-604v-608h653v-111h-766z" />
    <glyph glyph-name="Edieresis" unicode="&#xcb;" horiz-adv-x="1042" 
d="M667 1598v184h148v-184h-148zM227 1598v184h147v-184h-147zM168 0v1460h766v-110h-653v-521h604v-110h-604v-608h653v-111h-766z" />
    <glyph glyph-name="Igrave" unicode="&#xcc;" horiz-adv-x="451" 
d="M168 0v1460h113v-1460h-113zM-1 1898h131l147 -301h-102z" />
    <glyph glyph-name="Iacute" unicode="&#xcd;" horiz-adv-x="451" 
d="M172 1597l147 301h131l-178 -301h-100zM168 0v1460h113v-1460h-113z" />
    <glyph glyph-name="Icircumflex" unicode="&#xce;" horiz-adv-x="451" 
d="M168 0v1460h113v-1460h-113zM-34 1597l205 301h112l205 -301h-102l-158 207l-158 -207h-104z" />
    <glyph glyph-name="Idieresis" unicode="&#xcf;" horiz-adv-x="451" 
d="M373 1598v184h148v-184h-148zM168 0v1460h113v-1460h-113zM-67 1598v184h147v-184h-147z" />
    <glyph glyph-name="Eth" unicode="&#xd0;" horiz-adv-x="1128" 
d="M289 111h313q36 0 82 9.5t87 39t69 83t28 140.5v696q0 88 -28.5 141t-70.5 82t-88.5 38.5t-82.5 9.5h-309v-531h348v-102h-348v-606zM49 717v102h127v641h422q80 0 139.5 -19.5t102 -51t70 -71.5t43.5 -82t22 -81.5t6 -69.5v-704q0 -31 -6 -71.5t-21.5 -83t-42.5 -83
t-68.5 -72.5t-100 -51.5t-136.5 -19.5h-430v717h-127z" />
    <glyph glyph-name="Ntilde" unicode="&#xd1;" horiz-adv-x="1153" 
d="M260 1689q33 32 59.5 51.5t48 30t40 14t36.5 3.5q34 0 70 -14.5t70 -32t65 -32t55 -14.5q12 0 25 2.5t27.5 9t31 19t37.5 33.5l66 -64q-33 -32 -59.5 -51.5t-49 -30t-41 -13.5t-35.5 -3q-36 0 -70 14.5t-66 31.5t-63 31.5t-61 14.5q-12 0 -24 -2t-26 -8.5t-31.5 -19
t-39.5 -33.5zM168 0v1460h151l551 -1302v1302h113v-1460h-158l-544 1286v-1286h-113z" />
    <glyph glyph-name="Ograve" unicode="&#xd2;" horiz-adv-x="1100" 
d="M348 1898h131l147 -301h-102zM260 360q0 -72 23 -123t62.5 -83t92.5 -47t113 -15t112.5 15t92 47t62 83t22.5 123v736q0 72 -22.5 123t-62 83t-92 47t-112.5 15t-113 -15t-92.5 -47t-62.5 -83t-23 -123v-736zM147 356v744q0 84 28 153t80.5 118.5t127.5 76.5t168 27
q91 0 165.5 -27.5t126.5 -77t80.5 -119t28.5 -153.5v-740q0 -84 -28.5 -153.5t-80.5 -119t-126.5 -76.5t-165.5 -27q-93 0 -168 27t-127.5 76.5t-80.5 118t-28 152.5z" />
    <glyph glyph-name="Oacute" unicode="&#xd3;" horiz-adv-x="1100" 
d="M475 1597l147 301h131l-178 -301h-100zM260 360q0 -72 23 -123t62.5 -83t92.5 -47t113 -15t112.5 15t92 47t62 83t22.5 123v736q0 72 -22.5 123t-62 83t-92 47t-112.5 15t-113 -15t-92.5 -47t-62.5 -83t-23 -123v-736zM147 356v744q0 84 28 153t80.5 118.5t127.5 76.5
t168 27q91 0 165.5 -27.5t126.5 -77t80.5 -119t28.5 -153.5v-740q0 -84 -28.5 -153.5t-80.5 -119t-126.5 -76.5t-165.5 -27q-93 0 -168 27t-127.5 76.5t-80.5 118t-28 152.5z" />
    <glyph glyph-name="Ocircumflex" unicode="&#xd4;" horiz-adv-x="1100" 
d="M289 1597l205 301h112l205 -301h-102l-158 207l-158 -207h-104zM260 360q0 -72 23 -123t62.5 -83t92.5 -47t113 -15t112.5 15t92 47t62 83t22.5 123v736q0 72 -22.5 123t-62 83t-92 47t-112.5 15t-113 -15t-92.5 -47t-62.5 -83t-23 -123v-736zM147 356v744q0 84 28 153
t80.5 118.5t127.5 76.5t168 27q91 0 165.5 -27.5t126.5 -77t80.5 -119t28.5 -153.5v-740q0 -84 -28.5 -153.5t-80.5 -119t-126.5 -76.5t-165.5 -27q-93 0 -168 27t-127.5 76.5t-80.5 118t-28 152.5z" />
    <glyph glyph-name="Otilde" unicode="&#xd5;" horiz-adv-x="1102" 
d="M260 360q0 -72 23 -123t62.5 -83t92.5 -47t113 -15t112.5 15t92 47t62 83t22.5 123v736q0 72 -22.5 123t-62 83t-92 47t-112.5 15t-113 -15t-92.5 -47t-62.5 -83t-23 -123v-736zM231 1689q33 32 59.5 51.5t48 30t40 14t36.5 3.5q34 0 70 -14.5t70 -32t65 -32t55 -14.5
q12 0 25 2.5t27.5 9t31 19t37.5 33.5l66 -64q-33 -32 -59.5 -51.5t-49 -30t-41 -13.5t-35.5 -3q-36 0 -70 14.5t-66 31.5t-63 31.5t-61 14.5q-12 0 -24 -2t-26 -8.5t-31.5 -19t-39.5 -33.5zM147 356v744q0 84 28 153t80.5 118.5t127.5 76.5t168 27q91 0 165.5 -27.5
t126.5 -77t80.5 -119t28.5 -153.5v-740q0 -84 -28.5 -153.5t-80.5 -119t-126.5 -76.5t-165.5 -27q-93 0 -168 27t-127.5 76.5t-80.5 118t-28 152.5z" />
    <glyph glyph-name="Odieresis" unicode="&#xd6;" horiz-adv-x="1100" 
d="M696 1598v184h148v-184h-148zM260 360q0 -72 23 -123t62.5 -83t92.5 -47t113 -15t112.5 15t92 47t62 83t22.5 123v736q0 72 -22.5 123t-62 83t-92 47t-112.5 15t-113 -15t-92.5 -47t-62.5 -83t-23 -123v-736zM256 1598v184h147v-184h-147zM147 356v744q0 84 28 153
t80.5 118.5t127.5 76.5t168 27q91 0 165.5 -27.5t126.5 -77t80.5 -119t28.5 -153.5v-740q0 -84 -28.5 -153.5t-80.5 -119t-126.5 -76.5t-165.5 -27q-93 0 -168 27t-127.5 76.5t-80.5 118t-28 152.5z" />
    <glyph glyph-name="multiply" unicode="&#xd7;" horiz-adv-x="1157" 
d="M227 274l279 279l-279 278l72 72l279 -278l278 278l72 -72l-279 -278l279 -279l-72 -71l-278 278l-279 -278z" />
    <glyph glyph-name="Oslash" unicode="&#xd8;" horiz-adv-x="1102" 
d="M338 160q40 -35 95 -51.5t118 -16.5q60 0 112.5 15t92 47t62 83t22.5 123v736q0 56 -17 104zM260 360q0 -29 3 -54.5t11 -47.5l488 1038q-40 35 -94.5 51.5t-116.5 16.5q-60 0 -113 -15t-92.5 -47t-62.5 -83t-23 -123v-736zM102 -111l113 242q-32 45 -50 102t-18 123v744
q0 84 28 153t80.5 118.5t127.5 76.5t168 27q77 0 142.5 -19.5t115.5 -56.5l72 151h106l-104 -225q34 -46 51.5 -103.5t17.5 -123.5v-740q0 -84 -28.5 -153.5t-80.5 -119t-126.5 -76.5t-165.5 -27q-81 0 -146 19t-116 56l-78 -168h-109z" />
    <glyph glyph-name="Ugrave" unicode="&#xd9;" horiz-adv-x="1100" 
d="M389 1898h131l147 -301h-102zM147 356v1104h113v-1100q0 -72 23 -123t62.5 -83t92.5 -47t113 -15t112.5 15t92 47t62 83t22.5 123v1100h112v-1102q0 -84 -28.5 -153.5t-80.5 -119t-126.5 -76.5t-165.5 -27q-93 0 -168 27t-127.5 76.5t-80.5 118t-28 152.5z" />
    <glyph glyph-name="Uacute" unicode="&#xda;" horiz-adv-x="1100" 
d="M451 1597l147 301h131l-178 -301h-100zM147 356v1104h113v-1100q0 -72 23 -123t62.5 -83t92.5 -47t113 -15t112.5 15t92 47t62 83t22.5 123v1100h112v-1102q0 -84 -28.5 -153.5t-80.5 -119t-126.5 -76.5t-165.5 -27q-93 0 -168 27t-127.5 76.5t-80.5 118t-28 152.5z" />
    <glyph glyph-name="Ucircumflex" unicode="&#xdb;" horiz-adv-x="1100" 
d="M289 1597l205 301h112l205 -301h-102l-158 207l-158 -207h-104zM147 356v1104h113v-1100q0 -72 23 -123t62.5 -83t92.5 -47t113 -15t112.5 15t92 47t62 83t22.5 123v1100h112v-1102q0 -84 -28.5 -153.5t-80.5 -119t-126.5 -76.5t-165.5 -27q-93 0 -168 27t-127.5 76.5
t-80.5 118t-28 152.5z" />
    <glyph glyph-name="Udieresis" unicode="&#xdc;" horiz-adv-x="1100" 
d="M696 1598v184h148v-184h-148zM256 1598v184h147v-184h-147zM147 356v1104h113v-1100q0 -72 23 -123t62.5 -83t92.5 -47t113 -15t112.5 15t92 47t62 83t22.5 123v1100h112v-1102q0 -84 -28.5 -153.5t-80.5 -119t-126.5 -76.5t-165.5 -27q-93 0 -168 27t-127.5 76.5
t-80.5 118t-28 152.5z" />
    <glyph glyph-name="Yacute" unicode="&#xdd;" horiz-adv-x="1001" 
d="M401 1597l147 301h131l-178 -301h-100zM57 1460h123l320 -794l319 794h123l-387 -934v-526h-113v528z" />
    <glyph glyph-name="Thorn" unicode="&#xde;" horiz-adv-x="1151" 
d="M281 451h348q46 0 94 12.5t87 44.5t64 87.5t25 141.5q0 65 -18 118t-52.5 90t-85 57t-114.5 20h-348v-571zM168 0v1460h113v-327h348q87 0 158 -28.5t121 -81t77 -125.5t27 -161q0 -90 -26.5 -163.5t-76 -125.5t-120.5 -80t-160 -28h-348v-340h-113z" />
    <glyph glyph-name="germandbls" unicode="&#xdf;" horiz-adv-x="1118" 
d="M168 0v1098q0 30 6 69.5t22 81.5t43.5 82t70 71.5t102 51t139.5 19.5q78 0 136.5 -19.5t100 -51.5t68.5 -72.5t42.5 -82.5t21.5 -82t6 -71q0 -42 -9.5 -85.5t-29 -81t-49 -66t-70.5 -42.5q69 -24 110.5 -66t64 -89t29.5 -93.5t7 -78.5v-111q0 -32 -6 -72.5t-21.5 -83
t-42.5 -83t-68.5 -72t-100 -51t-136.5 -19.5h-106v111h102q36 0 82 9.5t87 38.5t69 82t28 140v104q0 88 -25 141t-62.5 82t-81 38.5t-79.5 9.5h-47v110h54q94 0 141 61t47 165q0 87 -27.5 140.5t-68 82t-86 38t-80.5 9.5q-36 0 -82.5 -9.5t-88.5 -38t-70.5 -82t-28.5 -140.5
v-1092h-113z" />
    <glyph glyph-name="agrave" unicode="&#xe0;" horiz-adv-x="1069" 
d="M354 1538h131l147 -301h-102zM231 324q0 -71 21.5 -116t58.5 -71t84.5 -35.5t100.5 -9.5q55 0 108.5 17.5t96 52t68.5 84t26 114.5v156h-334q-51 0 -93.5 -10.5t-73 -34t-47 -60t-16.5 -87.5zM119 324q0 72 25.5 127t70.5 92t106.5 56t133.5 19h340v132q0 69 -19.5 114.5
t-54 73t-82 38.5t-102.5 11q-51 0 -98.5 -11t-84 -37.5t-58.5 -69t-22 -105.5h-112q0 61 16.5 109.5t44.5 85.5t65 63.5t78.5 43t84.5 24.5t84 8q68 0 135 -17.5t119.5 -58t85 -106t32.5 -160.5v-756h-112v129q-51 -71 -133.5 -109t-190.5 -38q-66 0 -129.5 19.5t-113 61
t-79.5 106t-30 155.5z" />
    <glyph glyph-name="aacute" unicode="&#xe1;" horiz-adv-x="1069" 
d="M436 1237l147 301h131l-178 -301h-100zM231 324q0 -71 21.5 -116t58.5 -71t84.5 -35.5t100.5 -9.5q55 0 108.5 17.5t96 52t68.5 84t26 114.5v156h-334q-51 0 -93.5 -10.5t-73 -34t-47 -60t-16.5 -87.5zM119 324q0 72 25.5 127t70.5 92t106.5 56t133.5 19h340v132
q0 69 -19.5 114.5t-54 73t-82 38.5t-102.5 11q-51 0 -98.5 -11t-84 -37.5t-58.5 -69t-22 -105.5h-112q0 61 16.5 109.5t44.5 85.5t65 63.5t78.5 43t84.5 24.5t84 8q68 0 135 -17.5t119.5 -58t85 -106t32.5 -160.5v-756h-112v129q-51 -71 -133.5 -109t-190.5 -38
q-66 0 -129.5 19.5t-113 61t-79.5 106t-30 155.5z" />
    <glyph glyph-name="acircumflex" unicode="&#xe2;" horiz-adv-x="1069" 
d="M272 1237l205 301h112l205 -301h-102l-158 207l-158 -207h-104zM231 324q0 -71 21.5 -116t58.5 -71t84.5 -35.5t100.5 -9.5q55 0 108.5 17.5t96 52t68.5 84t26 114.5v156h-334q-51 0 -93.5 -10.5t-73 -34t-47 -60t-16.5 -87.5zM119 324q0 72 25.5 127t70.5 92t106.5 56
t133.5 19h340v132q0 69 -19.5 114.5t-54 73t-82 38.5t-102.5 11q-51 0 -98.5 -11t-84 -37.5t-58.5 -69t-22 -105.5h-112q0 61 16.5 109.5t44.5 85.5t65 63.5t78.5 43t84.5 24.5t84 8q68 0 135 -17.5t119.5 -58t85 -106t32.5 -160.5v-756h-112v129q-51 -71 -133.5 -109
t-190.5 -38q-66 0 -129.5 19.5t-113 61t-79.5 106t-30 155.5z" />
    <glyph glyph-name="atilde" unicode="&#xe3;" horiz-adv-x="1069" 
d="M231 324q0 -71 21.5 -116t58.5 -71t84.5 -35.5t100.5 -9.5q55 0 108.5 17.5t96 52t68.5 84t26 114.5v156h-334q-51 0 -93.5 -10.5t-73 -34t-47 -60t-16.5 -87.5zM219 1337q33 32 59.5 51.5t48 30t40 14t36.5 3.5q34 0 70 -14.5t70 -32t65 -32t55 -14.5q12 0 25 2.5
t27.5 9t31 19t37.5 33.5l66 -64q-33 -32 -59.5 -51.5t-49 -30t-41 -13.5t-35.5 -3q-36 0 -70 14.5t-66 31.5t-63 31.5t-61 14.5q-12 0 -24 -2t-26 -8.5t-31.5 -19t-39.5 -33.5zM119 324q0 72 25.5 127t70.5 92t106.5 56t133.5 19h340v132q0 69 -19.5 114.5t-54 73t-82 38.5
t-102.5 11q-51 0 -98.5 -11t-84 -37.5t-58.5 -69t-22 -105.5h-112q0 61 16.5 109.5t44.5 85.5t65 63.5t78.5 43t84.5 24.5t84 8q68 0 135 -17.5t119.5 -58t85 -106t32.5 -160.5v-756h-112v129q-51 -71 -133.5 -109t-190.5 -38q-66 0 -129.5 19.5t-113 61t-79.5 106
t-30 155.5z" />
    <glyph glyph-name="adieresis" unicode="&#xe4;" horiz-adv-x="1069" 
d="M680 1276v184h148v-184h-148zM240 1276v184h147v-184h-147zM231 324q0 -71 21.5 -116t58.5 -71t84.5 -35.5t100.5 -9.5q55 0 108.5 17.5t96 52t68.5 84t26 114.5v156h-334q-51 0 -93.5 -10.5t-73 -34t-47 -60t-16.5 -87.5zM119 324q0 72 25.5 127t70.5 92t106.5 56
t133.5 19h340v132q0 69 -19.5 114.5t-54 73t-82 38.5t-102.5 11q-51 0 -98.5 -11t-84 -37.5t-58.5 -69t-22 -105.5h-112q0 61 16.5 109.5t44.5 85.5t65 63.5t78.5 43t84.5 24.5t84 8q68 0 135 -17.5t119.5 -58t85 -106t32.5 -160.5v-756h-112v129q-51 -71 -133.5 -109
t-190.5 -38q-66 0 -129.5 19.5t-113 61t-79.5 106t-30 155.5z" />
    <glyph glyph-name="aring" unicode="&#xe5;" horiz-adv-x="1069" 
d="M416 1362q0 -24 9.5 -45.5t25 -38t37 -26t45.5 -9.5t46 9.5t38.5 26t26.5 38t10 45.5t-10 46t-26.5 38t-38.5 25.5t-46 9.5t-45.5 -9.5t-37 -25.5t-25 -38t-9.5 -46zM330 1362q0 42 16 79.5t44 65.5t64.5 44t78.5 16q43 0 80.5 -16t65.5 -43.5t44.5 -65t16.5 -80.5
q0 -42 -16.5 -79t-44.5 -65t-65.5 -44.5t-80.5 -16.5q-42 0 -78.5 16.5t-64.5 44.5t-44 65t-16 79zM231 324q0 -71 21.5 -116t58.5 -71t84.5 -35.5t100.5 -9.5q55 0 108.5 17.5t96 52t68.5 84t26 114.5v156h-334q-51 0 -93.5 -10.5t-73 -34t-47 -60t-16.5 -87.5zM119 324
q0 72 25.5 127t70.5 92t106.5 56t133.5 19h340v132q0 69 -19.5 114.5t-54 73t-82 38.5t-102.5 11q-51 0 -98.5 -11t-84 -37.5t-58.5 -69t-22 -105.5h-112q0 61 16.5 109.5t44.5 85.5t65 63.5t78.5 43t84.5 24.5t84 8q68 0 135 -17.5t119.5 -58t85 -106t32.5 -160.5v-756
h-112v129q-51 -71 -133.5 -109t-190.5 -38q-66 0 -129.5 19.5t-113 61t-79.5 106t-30 155.5z" />
    <glyph glyph-name="ae" unicode="&#xe6;" horiz-adv-x="1724" 
d="M907 621h555v96q0 46 -11 94t-41.5 87t-84.5 64t-139 25q-130 0 -203 -67t-76 -191v-108zM231 324q0 -68 20.5 -112.5t55.5 -71t83 -37.5t104 -11q76 0 132.5 24.5t94 63t56 85.5t18.5 93v154h-334q-51 0 -93.5 -10t-73 -32.5t-47 -58.5t-16.5 -87zM119 324
q0 72 25.5 127.5t70.5 93t106.5 57t133.5 19.5h340v131q0 69 -20 114.5t-55 72t-82.5 37.5t-102.5 11q-47 0 -93.5 -10.5t-83 -35t-59.5 -66.5t-23 -105v-6h-112v4q0 61 17 109t45 85t65.5 62.5t78 42t82.5 24t80 7.5q49 0 96 -8.5t89 -27t78 -48.5t63 -72q50 74 133 115
t195 41q90 0 162 -26.5t122.5 -76t77.5 -120t27 -158.5v-205h-668v-150q0 -46 11 -94t42 -87t85.5 -64t140.5 -25q124 0 195 62t79 178h113q-5 -81 -34 -145.5t-79.5 -110t-120 -70t-153.5 -24.5q-57 0 -109.5 13.5t-97 38.5t-79.5 60.5t-56 79.5q-24 -44 -62.5 -79.5
t-87.5 -60.5t-105.5 -38.5t-117.5 -13.5q-69 0 -132.5 19.5t-112.5 61t-78 106t-29 155.5z" />
    <glyph glyph-name="ccedilla" unicode="&#xe7;" horiz-adv-x="1049" 
d="M344 -389l178 301h101l-148 -301h-131zM147 362v355q0 87 28.5 157t81 120t126 77t162.5 27q87 0 157.5 -24.5t121.5 -71t80.5 -113t33.5 -150.5h-113q-2 44 -16 88t-45.5 79.5t-84.5 58t-134 22.5q-66 0 -119 -18t-89.5 -52.5t-56.5 -85t-20 -114.5v-355q0 -46 12 -94
t44 -87.5t87.5 -65t141.5 -25.5q124 0 197 63t81 179h115q-5 -81 -35 -146t-81.5 -110.5t-122 -70.5t-154.5 -25q-91 0 -164.5 26.5t-125.5 76t-80 120t-28 159.5z" />
    <glyph glyph-name="egrave" unicode="&#xe8;" horiz-adv-x="1087" 
d="M354 1538h131l147 -301h-102zM260 623h565v94q0 46 -12 94t-43 87t-85.5 64t-139.5 25q-66 0 -119 -18t-89.5 -52.5t-56.5 -85t-20 -114.5v-94zM147 362v355q0 87 28.5 157t81 120t126 77t162.5 27q90 0 162.5 -26.5t124.5 -76t80 -120t28 -158.5v-205h-680v-150
q0 -46 12 -94t44 -87.5t87.5 -65t141.5 -25.5q124 0 198 63t82 179h113q-5 -81 -35 -146t-81.5 -110.5t-122 -70.5t-154.5 -25q-91 0 -164.5 26.5t-125.5 76t-80 120t-28 159.5z" />
    <glyph glyph-name="eacute" unicode="&#xe9;" horiz-adv-x="1087" 
d="M436 1237l147 301h131l-178 -301h-100zM260 623h565v94q0 46 -12 94t-43 87t-85.5 64t-139.5 25q-66 0 -119 -18t-89.5 -52.5t-56.5 -85t-20 -114.5v-94zM147 362v355q0 87 28.5 157t81 120t126 77t162.5 27q90 0 162.5 -26.5t124.5 -76t80 -120t28 -158.5v-205h-680
v-150q0 -46 12 -94t44 -87.5t87.5 -65t141.5 -25.5q124 0 198 63t82 179h113q-5 -81 -35 -146t-81.5 -110.5t-122 -70.5t-154.5 -25q-91 0 -164.5 26.5t-125.5 76t-80 120t-28 159.5z" />
    <glyph glyph-name="ecircumflex" unicode="&#xea;" horiz-adv-x="1087" 
d="M279 1237l205 301h112l205 -301h-102l-158 207l-158 -207h-104zM260 623h565v94q0 46 -12 94t-43 87t-85.5 64t-139.5 25q-66 0 -119 -18t-89.5 -52.5t-56.5 -85t-20 -114.5v-94zM147 362v355q0 87 28.5 157t81 120t126 77t162.5 27q90 0 162.5 -26.5t124.5 -76t80 -120
t28 -158.5v-205h-680v-150q0 -46 12 -94t44 -87.5t87.5 -65t141.5 -25.5q124 0 198 63t82 179h113q-5 -81 -35 -146t-81.5 -110.5t-122 -70.5t-154.5 -25q-91 0 -164.5 26.5t-125.5 76t-80 120t-28 159.5z" />
    <glyph glyph-name="edieresis" unicode="&#xeb;" horiz-adv-x="1087" 
d="M686 1276v184h148v-184h-148zM260 623h565v94q0 46 -12 94t-43 87t-85.5 64t-139.5 25q-66 0 -119 -18t-89.5 -52.5t-56.5 -85t-20 -114.5v-94zM246 1276v184h147v-184h-147zM147 362v355q0 87 28.5 157t81 120t126 77t162.5 27q90 0 162.5 -26.5t124.5 -76t80 -120
t28 -158.5v-205h-680v-150q0 -46 12 -94t44 -87.5t87.5 -65t141.5 -25.5q124 0 198 63t82 179h113q-5 -81 -35 -146t-81.5 -110.5t-122 -70.5t-154.5 -25q-91 0 -164.5 26.5t-125.5 76t-80 120t-28 159.5z" />
    <glyph glyph-name="igrave" unicode="&#xec;" horiz-adv-x="449" 
d="M168 0v1079h111v-1079h-111zM1 1538h131l147 -301h-102z" />
    <glyph glyph-name="iacute" unicode="&#xed;" horiz-adv-x="449" 
d="M176 1237l147 301h131l-178 -301h-100zM168 0v1079h111v-1079h-111z" />
    <glyph glyph-name="icircumflex" unicode="&#xee;" horiz-adv-x="449" 
d="M168 0v1079h111v-1079h-111zM-36 1237l205 301h112l205 -301h-102l-158 207l-158 -207h-104z" />
    <glyph glyph-name="idieresis" unicode="&#xef;" horiz-adv-x="449" 
d="M371 1276v184h148v-184h-148zM168 0v1079h111v-1079h-111zM-69 1276v184h147v-184h-147z" />
    <glyph glyph-name="eth" unicode="&#xf0;" horiz-adv-x="1122" 
d="M272 362q0 -58 15 -101t39.5 -73t55.5 -48.5t63.5 -29t63.5 -14.5t54 -4t53.5 4t62 14.5t62 29t54.5 48.5t38.5 73t14.5 101v166q0 58 -14.5 101t-38.5 73.5t-54.5 49.5t-62 30t-62 15t-53.5 4q-24 0 -54.5 -4t-63 -15t-63.5 -30t-55.5 -49.5t-39.5 -73.5t-15 -101v-166z
M160 356v174q0 31 7.5 71.5t25.5 83t47.5 83t73 72.5t103.5 51.5t138 19.5q94 0 168.5 -32.5t124.5 -94.5v308q0 31 -4.5 57t-12.5 49l-174 -176l-71 72l190 192q-23 24 -50.5 39t-56.5 24t-57 12t-51 3v111q103 0 174 -31.5t117 -79.5l168 168l72 -72l-179 -180
q26 -50 37 -98.5t11 -85.5v-744q0 -31 -7.5 -70t-25.5 -80.5t-48 -81t-74 -70t-104 -49.5t-139 -19q-80 0 -140.5 19.5t-105.5 51t-75 71.5t-48.5 81.5t-26 81t-7.5 69.5z" />
    <glyph glyph-name="ntilde" unicode="&#xf1;" horiz-adv-x="1110" 
d="M240 1337q33 32 59.5 51.5t48 30t40 14t36.5 3.5q34 0 70 -14.5t70 -32t65 -32t55 -14.5q12 0 25 2.5t27.5 9t31 19t37.5 33.5l66 -64q-33 -32 -59.5 -51.5t-49 -30t-41 -13.5t-35.5 -3q-36 0 -70 14.5t-66 31.5t-63 31.5t-61 14.5q-12 0 -24 -2t-26 -8.5t-31.5 -19
t-39.5 -33.5zM168 0v1079h113v-129q27 42 61.5 70t73.5 45.5t80.5 25t83.5 7.5q90 0 158.5 -26t115 -75.5t70.5 -120t24 -159.5v-717h-112v717q0 45 -8 93t-34.5 87.5t-77 64.5t-136.5 25q-62 0 -116.5 -19.5t-95 -54.5t-64 -84t-23.5 -108v-721h-113z" />
    <glyph glyph-name="ograve" unicode="&#xf2;" horiz-adv-x="1087" 
d="M354 1538h131l147 -301h-102zM260 362q0 -46 12 -94t44 -87.5t87.5 -65t141.5 -25.5q65 0 117.5 18.5t89 53t56 85t19.5 115.5v355q0 46 -12 94t-43.5 87t-86.5 64t-140 25q-66 0 -119 -18t-89.5 -52.5t-56.5 -85t-20 -114.5v-355zM147 362v355q0 87 28.5 157t81 120
t126 77t162.5 27q90 0 162.5 -26.5t124.5 -76t80 -120t28 -158.5v-355q0 -87 -28.5 -158t-80.5 -120.5t-125 -76.5t-161 -27q-91 0 -164.5 26.5t-125.5 76t-80 120t-28 159.5z" />
    <glyph glyph-name="oacute" unicode="&#xf3;" horiz-adv-x="1087" 
d="M457 1237l147 301h131l-178 -301h-100zM260 362q0 -46 12 -94t44 -87.5t87.5 -65t141.5 -25.5q65 0 117.5 18.5t89 53t56 85t19.5 115.5v355q0 46 -12 94t-43.5 87t-86.5 64t-140 25q-66 0 -119 -18t-89.5 -52.5t-56.5 -85t-20 -114.5v-355zM147 362v355q0 87 28.5 157
t81 120t126 77t162.5 27q90 0 162.5 -26.5t124.5 -76t80 -120t28 -158.5v-355q0 -87 -28.5 -158t-80.5 -120.5t-125 -76.5t-161 -27q-91 0 -164.5 26.5t-125.5 76t-80 120t-28 159.5z" />
    <glyph glyph-name="ocircumflex" unicode="&#xf4;" horiz-adv-x="1087" 
d="M283 1237l205 301h112l205 -301h-102l-158 207l-158 -207h-104zM260 362q0 -46 12 -94t44 -87.5t87.5 -65t141.5 -25.5q65 0 117.5 18.5t89 53t56 85t19.5 115.5v355q0 46 -12 94t-43.5 87t-86.5 64t-140 25q-66 0 -119 -18t-89.5 -52.5t-56.5 -85t-20 -114.5v-355z
M147 362v355q0 87 28.5 157t81 120t126 77t162.5 27q90 0 162.5 -26.5t124.5 -76t80 -120t28 -158.5v-355q0 -87 -28.5 -158t-80.5 -120.5t-125 -76.5t-161 -27q-91 0 -164.5 26.5t-125.5 76t-80 120t-28 159.5z" />
    <glyph glyph-name="otilde" unicode="&#xf5;" horiz-adv-x="1087" 
d="M260 362q0 -46 12 -94t44 -87.5t87.5 -65t141.5 -25.5q65 0 117.5 18.5t89 53t56 85t19.5 115.5v355q0 46 -12 94t-43.5 87t-86.5 64t-140 25q-66 0 -119 -18t-89.5 -52.5t-56.5 -85t-20 -114.5v-355zM227 1337q33 32 59.5 51.5t48 30t40 14t36.5 3.5q34 0 70 -14.5
t70 -32t65 -32t55 -14.5q12 0 25 2.5t27.5 9t31 19t37.5 33.5l66 -64q-33 -32 -59.5 -51.5t-49 -30t-41 -13.5t-35.5 -3q-36 0 -70 14.5t-66 31.5t-63 31.5t-61 14.5q-12 0 -24 -2t-26 -8.5t-31.5 -19t-39.5 -33.5zM147 362v355q0 87 28.5 157t81 120t126 77t162.5 27
q90 0 162.5 -26.5t124.5 -76t80 -120t28 -158.5v-355q0 -87 -28.5 -158t-80.5 -120.5t-125 -76.5t-161 -27q-91 0 -164.5 26.5t-125.5 76t-80 120t-28 159.5z" />
    <glyph glyph-name="odieresis" unicode="&#xf6;" horiz-adv-x="1087" 
d="M690 1276v184h148v-184h-148zM260 362q0 -46 12 -94t44 -87.5t87.5 -65t141.5 -25.5q65 0 117.5 18.5t89 53t56 85t19.5 115.5v355q0 46 -12 94t-43.5 87t-86.5 64t-140 25q-66 0 -119 -18t-89.5 -52.5t-56.5 -85t-20 -114.5v-355zM250 1276v184h147v-184h-147zM147 362
v355q0 87 28.5 157t81 120t126 77t162.5 27q90 0 162.5 -26.5t124.5 -76t80 -120t28 -158.5v-355q0 -87 -28.5 -158t-80.5 -120.5t-125 -76.5t-161 -27q-91 0 -164.5 26.5t-125.5 76t-80 120t-28 159.5z" />
    <glyph glyph-name="divide" unicode="&#xf7;" horiz-adv-x="1098" 
d="M446 680v186h187v-186h-187zM446 0v186h187v-186h-187zM162 385v102h758v-102h-758z" />
    <glyph glyph-name="oslash" unicode="&#xf8;" horiz-adv-x="1090" 
d="M393 121q29 -14 66.5 -22.5t85.5 -8.5q65 0 117.5 18.5t89 53t56 85t19.5 115.5v355q0 48 -13 97t-48 89zM260 362q0 -46 11 -92.5t42 -85.5l373 779q-56 24 -141 24q-66 0 -119 -18t-89.5 -52.5t-56.5 -85t-20 -114.5v-355zM147 362v355q0 87 28.5 157t81 120t126 77
t162.5 27q52 0 99 -10t89 -27l58 121h108l-82 -172q59 -50 91 -124.5t32 -168.5v-355q0 -87 -28.5 -158t-80.5 -120.5t-125 -76.5t-161 -27q-113 0 -201 40l-59 -126h-111l88 182q-56 51 -85.5 122.5t-29.5 163.5z" />
    <glyph glyph-name="ugrave" unicode="&#xf9;" horiz-adv-x="1114" 
d="M356 1538h131l147 -301h-102zM160 362v717h112v-717q0 -46 11.5 -94t42 -87.5t85 -65t140.5 -25.5q61 0 112.5 18.5t89 52.5t58 82t20.5 107v729h113v-1079h-113v109q-55 -74 -127 -101.5t-153 -27.5q-91 0 -163.5 26.5t-123 76t-77.5 120.5t-27 159z" />
    <glyph glyph-name="uacute" unicode="&#xfa;" horiz-adv-x="1114" 
d="M459 1237l147 301h131l-178 -301h-100zM160 362v717h112v-717q0 -46 11.5 -94t42 -87.5t85 -65t140.5 -25.5q61 0 112.5 18.5t89 52.5t58 82t20.5 107v729h113v-1079h-113v109q-55 -74 -127 -101.5t-153 -27.5q-91 0 -163.5 26.5t-123 76t-77.5 120.5t-27 159z" />
    <glyph glyph-name="ucircumflex" unicode="&#xfb;" horiz-adv-x="1114" 
d="M295 1237l205 301h112l205 -301h-102l-158 207l-158 -207h-104zM160 362v717h112v-717q0 -46 11.5 -94t42 -87.5t85 -65t140.5 -25.5q61 0 112.5 18.5t89 52.5t58 82t20.5 107v729h113v-1079h-113v109q-55 -74 -127 -101.5t-153 -27.5q-91 0 -163.5 26.5t-123 76
t-77.5 120.5t-27 159z" />
    <glyph glyph-name="udieresis" unicode="&#xfc;" horiz-adv-x="1114" 
d="M702 1276v184h148v-184h-148zM262 1276v184h147v-184h-147zM160 362v717h112v-717q0 -46 11.5 -94t42 -87.5t85 -65t140.5 -25.5q61 0 112.5 18.5t89 52.5t58 82t20.5 107v729h113v-1079h-113v109q-55 -74 -127 -101.5t-153 -27.5q-91 0 -163.5 26.5t-123 76t-77.5 120.5
t-27 159z" />
    <glyph glyph-name="yacute" unicode="&#xfd;" horiz-adv-x="930" 
d="M367 1237l147 301h131l-178 -301h-100zM57 1079h117l281 -975h30l269 975h116l-360 -1290q-23 -83 -53 -132.5t-69.5 -76t-89 -35t-110.5 -8.5h-10v111h37q36 0 64.5 5t50.5 19.5t38.5 41t28.5 69.5l62 217h-84z" />
    <glyph glyph-name="thorn" unicode="&#xfe;" horiz-adv-x="1096" 
d="M281 362q0 -46 11 -94t41 -87.5t84 -65t140 -25.5q131 0 204 71t73 201v355q0 46 -11.5 94t-42 87t-84.5 64t-139 25q-133 0 -204.5 -70t-71.5 -200v-355zM168 -463v1923h113v-489q57 68 124.5 97.5t151.5 29.5q90 0 162 -26.5t122.5 -76t77.5 -120t27 -158.5v-355
q0 -87 -27.5 -158t-78.5 -120.5t-123 -76.5t-160 -27q-84 0 -157.5 30.5t-118.5 95.5v-569h-113z" />
    <glyph glyph-name="uniE000" unicode="&#xe000;" horiz-adv-x="1080" 
d="M0 0v1080h1080v-1080h-1080z" />
    <glyph glyph-name="uniFB01" unicode="&#xfb01;" horiz-adv-x="1139" 
d="M821 1292v183h148v-183h-148zM45 967v110h195v88q0 68 16.5 122.5t51 93t87 59t123.5 20.5h76v-110h-96q-24 0 -50 -7.5t-47 -26t-35 -49.5t-14 -77v-113h600v-1077h-112v967h-488v-967h-112v967h-195z" />
    <glyph glyph-name="uniFB02" unicode="&#xfb02;" horiz-adv-x="1141" 
d="M45 967v110h195v88q0 68 16.5 122.5t51 93t87 59t123.5 20.5h76v-110h-96q-24 0 -50 -7.5t-47 -26t-35 -49.5t-14 -77v-113h467v383h113v-1202q0 -42 11.5 -70.5t31 -45.5t45.5 -24t55 -7h27v-111h-37q-51 0 -95.5 15t-78 47.5t-53 83.5t-19.5 122v699h-467v-967h-112
v967h-195z" />
    </font>
</defs>
</svg>
